<?xml version="1.0" standalone="no"?>
<!DOCTYPE svg PUBLIC "-//W3C//DTD SVG 1.1//EN" "http://www.w3.org/Graphics/SVG/1.1/DTD/svg11.dtd" >
<svg xmlns="http://www.w3.org/2000/svg" xmlns:xlink="http://www.w3.org/1999/xlink" version="1.1">
<metadata>
Created by FontForge 20150318 at Thu Nov 12 16:31:52 2015
 By uniteet7
</metadata>
<defs>
<font id="GraphikBACondBold" horiz-adv-x="410" >
  <font-face 
    font-family="GraphikBACondBold"
    font-weight="700"
    font-stretch="normal"
    units-per-em="1000"
    panose-1="1 0 3 2 2 0 0 1 0 2"
    ascent="800"
    descent="-200"
    x-height="523"
    cap-height="715"
    bbox="-202 -211 882 1086"
    underline-thickness="34"
    underline-position="-84"
    unicode-range="U+0020-FB02"
  />
<missing-glyph horiz-adv-x="514" 
 />
    <glyph glyph-name="f_f" unicode="ff" horiz-adv-x="560" 
d="M312 0v419h-98v-419h-148v419h-50v104h50v63q0 75 42 114.5t111 39.5q42 0 60 -6v-110q-7 3 -25 3q-40 0 -40 -46v-58h98v70q0 77 43 115.5t122 38.5q42 0 63 -7v-110q-10 4 -32 4q-48 0 -48 -47v-64h80v-104h-80v-419h-148z" />
    <glyph glyph-name=".notdef" horiz-adv-x="514" 
 />
    <glyph glyph-name=".null" horiz-adv-x="0" 
 />
    <glyph glyph-name="nonmarkingreturn" horiz-adv-x="333" 
 />
    <glyph glyph-name="space" unicode=" " horiz-adv-x="132" 
 />
    <glyph glyph-name="exclam" unicode="!" horiz-adv-x="270" 
d="M74 213l-23 502h168l-22 -502h-123zM135 -8q-37 0 -61.5 24t-24.5 59t24.5 59.5t61.5 24.5t62 -24.5t25 -59.5t-25 -59t-62 -24z" />
    <glyph glyph-name="quotedbl" unicode="&#x22;" horiz-adv-x="382" 
d="M53 478l-19 237h141l-19 -237h-103zM226 478l-19 237h141l-19 -237h-103z" />
    <glyph glyph-name="numbersign" unicode="#" horiz-adv-x="494" 
d="M233 144l19 138h-55l-19 -138h-104l19 138h-61v117h78l11 79h-69v116h85l17 121h104l-17 -121h55l17 121h104l-17 -121h62v-116h-78l-11 -79h69v-117h-86l-19 -138h-104zM225 478l-11 -79h55l11 79h-55z" />
    <glyph glyph-name="dollar" unicode="$" horiz-adv-x="515" 
d="M288 -114h-59v105q-97 8 -150.5 64t-53.5 152h149q1 -87 55 -101v189q-107 45 -150.5 97t-43.5 141q0 83 52 134t142 57v78h59v-79q90 -8 139.5 -57.5t51.5 -141.5h-145q-4 68 -46 81v-168q52 -22 84.5 -41.5t60.5 -47t41 -64.5t13 -87q0 -93 -51.5 -146.5t-147.5 -60.5
v-104zM339 181q0 52 -51 84v-159q51 14 51 75zM180 543q0 -50 49 -78v142q-49 -9 -49 -64z" />
    <glyph glyph-name="percent" unicode="%" horiz-adv-x="668" 
d="M71 0l444 715h84l-444 -715h-84zM180 392q-72 0 -112.5 39.5t-40.5 109.5v36q0 68 43 106.5t111 38.5t110.5 -37.5t42.5 -104.5v-36q0 -71 -41 -111.5t-113 -40.5zM181 480q40 0 40 58v41q0 56 -40 56q-41 0 -41 -56v-41q0 -58 41 -58zM487 -10q-72 0 -112.5 39.5
t-40.5 108.5v36q0 68 43 107t111 39t110.5 -37.5t42.5 -105.5v-36q0 -71 -41 -111t-113 -40zM488 77q40 0 40 58v41q0 56 -40 56q-41 0 -41 -56v-41q0 -58 41 -58z" />
    <glyph glyph-name="ampersand" unicode="&#x26;" horiz-adv-x="590" 
d="M399 0l-30 50q-52 -60 -146 -60t-144 48.5t-50 144.5v48q0 126 117 179q-45 62 -45 138q0 88 51.5 132.5t133.5 44.5q81 0 131 -41t50 -124q0 -113 -125 -173l73 -120l31 104h128l-82 -231l85 -140h-178zM250 109q36 0 61 35l-108 178q-23 -29 -23 -86v-39q0 -88 70 -88z
M247 554q0 -59 30 -100q31 20 42.5 42t11.5 60q0 60 -40 60q-44 0 -44 -62z" />
    <glyph glyph-name="quotesingle" unicode="'" horiz-adv-x="216" 
d="M53 478l-19 237h147l-18 -237h-110z" />
    <glyph glyph-name="parenleft" unicode="(" horiz-adv-x="306" 
d="M178 -140q-143 191 -143 453q0 260 143 453h115q-116 -199 -116 -453q0 -252 116 -453h-115z" />
    <glyph glyph-name="parenright" unicode=")" horiz-adv-x="306" 
d="M128 -140h-116q117 197 117 453t-117 453h116q143 -191 143 -453q0 -257 -143 -453z" />
    <glyph glyph-name="asterisk" unicode="*" horiz-adv-x="379" 
d="M144 425l-93 65l76 75l-98 10l30 105l90 -44l-19 103h121l-21 -103l91 44l29 -105l-97 -10l75 -75l-92 -65l-47 95z" />
    <glyph glyph-name="plus" unicode="+" horiz-adv-x="461" 
d="M169 134v151h-135v112h135v151h123v-151h135v-112h-135v-151h-123z" />
    <glyph glyph-name="comma" unicode="," horiz-adv-x="245" 
d="M102 -100l-87 30l59 227l139 -44z" />
    <glyph glyph-name="hyphen" unicode="-" horiz-adv-x="316" 
d="M42 228v113h232v-113h-232z" />
    <glyph glyph-name="period" unicode="." horiz-adv-x="242" 
d="M120 -8q-36 0 -60.5 24t-24.5 59t24.5 59.5t60.5 24.5q37 0 62 -24.5t25 -59.5t-25 -59t-62 -24z" />
    <glyph glyph-name="slash" unicode="/" horiz-adv-x="374" 
d="M-17 -139l264 906h121l-263 -906h-122z" />
    <glyph glyph-name="zero" unicode="0" horiz-adv-x="550" 
d="M273 -12q-111 0 -173.5 61.5t-62.5 182.5v249q0 120 65 182t173 62q109 0 173.5 -60t64.5 -182v-247q0 -122 -64 -185t-176 -63zM276 120q38 0 55 26.5t17 88.5v248q0 60 -17.5 86.5t-55.5 26.5t-55.5 -26.5t-17.5 -86.5v-249q0 -61 17.5 -87.5t56.5 -26.5z" />
    <glyph glyph-name="one" unicode="1" horiz-adv-x="347" 
d="M124 0v548l-97 -69v143l119 93h142v-715h-164z" />
    <glyph glyph-name="two" unicode="2" horiz-adv-x="491" 
d="M17 0v22l179 256q54 81 75 126.5t21 97.5v22q0 72 -51 72q-28 0 -42 -21.5t-16 -77.5h-153q0 112 55 170t160 58q106 0 159 -51t53 -143v-23q0 -66 -24 -122t-88 -150l-76 -109h189v-127h-441z" />
    <glyph glyph-name="three" unicode="3" horiz-adv-x="503" 
d="M470 184q0 -91 -55.5 -143.5t-164.5 -52.5q-114 0 -166.5 52.5t-54.5 164.5h152q1 -49 15.5 -69t47.5 -20q31 0 45 17t14 57v39q0 47 -17.5 66t-61.5 19h-32v111h32q41 0 59 19.5t18 61.5v25q0 68 -54 68q-56 0 -59 -81h-148q1 100 54.5 153.5t155.5 53.5q100 0 154 -46
t54 -137v-25q0 -56 -29 -92t-82 -48q123 -22 123 -153v-40z" />
    <glyph glyph-name="four" unicode="4" horiz-adv-x="531" 
d="M278 0v155h-259v57l215 503h203v-442h71v-118h-71v-155h-159zM164 273h117v303z" />
    <glyph glyph-name="five" unicode="5" horiz-adv-x="495" 
d="M243 -12q-210 0 -215 211h153q4 -45 16.5 -63t43.5 -18q29 0 41.5 20.5t12.5 65.5v52q0 92 -75 92q-54 0 -89 -42h-85l14 409h375v-129h-253l-5 -178q41 59 122 59q75 0 118.5 -50t43.5 -152v-66q0 -100 -55.5 -155.5t-162.5 -55.5z" />
    <glyph glyph-name="six" unicode="6" horiz-adv-x="519" 
d="M272 -12q-116 0 -175.5 61t-59.5 178v251q0 118 63.5 182.5t166.5 64.5q205 0 215 -191h-155q-4 63 -56 63q-68 0 -69 -115v-98q37 71 128 71q71 0 116 -45t45 -134v-87q0 -98 -57.5 -149.5t-161.5 -51.5zM269 111q60 0 60 77v83q0 74 -60 74q-62 0 -62 -80v-70
q0 -84 62 -84z" />
    <glyph glyph-name="seven" unicode="7" horiz-adv-x="454" 
d="M88 0l154 578h-216v137h413v-17l-186 -698h-165z" />
    <glyph glyph-name="eight" unicode="8" horiz-adv-x="516" 
d="M257 -12q-104 0 -164 46.5t-60 139.5v60q0 113 105 149q-87 33 -87 133v30q0 88 56.5 133.5t150.5 45.5t151.5 -46t57.5 -134v-28q0 -100 -87 -133q103 -36 103 -149v-57q0 -93 -60.5 -141.5t-165.5 -48.5zM258 107q62 0 62 74v71q0 77 -62 77t-62 -77v-71q0 -74 62 -74z
M259 433q57 0 57 71v38q0 67 -57 67t-57 -67v-38q0 -71 57 -71z" />
    <glyph glyph-name="nine" unicode="9" horiz-adv-x="520" 
d="M253 -11q-211 0 -218 191h154q2 -34 17 -49.5t45 -15.5q33 0 49 25t17 83v106q-37 -71 -123 -71q-74 0 -120 45t-46 134v85q0 98 59 150.5t164 52.5q232 0 232 -238v-262q0 -118 -60.5 -177t-169.5 -59zM252 602q-63 0 -63 -78v-81q0 -74 60 -74q63 0 63 79v72
q0 82 -60 82z" />
    <glyph glyph-name="colon" unicode=":" horiz-adv-x="248" 
d="M123 -8q-36 0 -61 24t-25 59t25 59.5t61 24.5q37 0 62 -24.5t25 -59.5t-25 -59t-62 -24zM123 283q-36 0 -61 24t-25 59t25 59.5t61 24.5q37 0 62 -24.5t25 -59.5t-25 -59t-62 -24z" />
    <glyph glyph-name="semicolon" unicode=";" horiz-adv-x="248" 
d="M96 -100l-87 30l59 227l139 -44zM132 283q-37 0 -61.5 24t-24.5 59t24.5 59.5t61.5 24.5t62 -24.5t25 -59.5t-25 -59t-62 -24z" />
    <glyph glyph-name="less" unicode="&#x3c;" horiz-adv-x="426" 
d="M383 107l-349 199v30l349 199v-138l-152 -75l152 -80v-135z" />
    <glyph glyph-name="equal" unicode="=" horiz-adv-x="460" 
d="M425 351h-390v107h390v-107zM425 181h-390v107h390v-107z" />
    <glyph glyph-name="greater" unicode="&#x3e;" horiz-adv-x="426" 
d="M43 107v138l152 76l-152 80v134l349 -199v-29z" />
    <glyph glyph-name="question" unicode="?" horiz-adv-x="455" 
d="M135 213v37q0 35 11 66t23.5 50t40.5 56q2 3 9.5 12.5t9 11.5t7.5 10.5t7.5 11.5t6 10t6 11t4 11t3 13t1.5 13t1 15q0 59 -44 59q-25 0 -38 -17t-14 -57h-148q1 99 54.5 149t152.5 50q198 0 198 -178q0 -49 -15 -84t-50 -79q-6 -7 -21.5 -25t-21 -25.5t-16 -22t-15 -24
t-8 -23t-3.5 -27.5v-24h-141zM205 -8q-37 0 -62 24t-25 60t25 60.5t62 24.5q38 0 63 -24.5t25 -60.5t-25 -60t-63 -24z" />
    <glyph glyph-name="at" unicode="@" horiz-adv-x="731" 
d="M367 -151q-156 0 -245 93.5t-89 251.5v124q0 165 96 265.5t246 100.5q147 0 235 -83.5t88 -224.5v-127q0 -100 -45 -150t-115 -50q-101 0 -123 73q-34 -73 -108 -73q-59 0 -93 42t-30 117l6 85q4 88 41.5 135t99.5 47q65 0 88 -51l5 43h123l-26 -283q-6 -65 37 -65
q69 0 69 130v126q0 118 -65 182t-186 64q-126 0 -197.5 -80.5t-71.5 -224.5v-123q0 -131 65.5 -205.5t195.5 -74.5q137 0 200 87h77q-36 -68 -107.5 -109.5t-170.5 -41.5zM350 150q45 0 51 84l5 80q5 61 -40 61q-44 0 -50 -77l-6 -86q-5 -62 40 -62z" />
    <glyph glyph-name="A" unicode="A" horiz-adv-x="540" 
d="M356 0l-24 143h-143l-23 -143h-152l141 715h230l141 -715h-170zM260 573l-52 -315h105z" />
    <glyph glyph-name="B" unicode="B" horiz-adv-x="533" 
d="M50 0v715h222q101 0 155 -43.5t54 -127.5v-30q0 -110 -115 -141q135 -27 135 -160v-22q0 -191 -225 -191h-226zM211 115h45q42 0 61.5 21.5t19.5 68.5v27q0 49 -19.5 68t-64.5 19h-42v-204zM211 426h40q40 0 57.5 17t17.5 60v27q0 41 -18 56t-58 15h-39v-175z" />
    <glyph glyph-name="C" unicode="C" horiz-adv-x="549" 
d="M291 -12q-121 0 -186.5 64t-65.5 186v238q0 119 68 184t179 65q228 0 235 -228h-166q-2 54 -18.5 75.5t-53.5 21.5q-74 0 -74 -114v-244q0 -61 18.5 -88.5t60.5 -27.5q75 0 76 102h161q-1 -118 -63 -176t-171 -58z" />
    <glyph glyph-name="D" unicode="D" horiz-adv-x="570" 
d="M50 715h215q133 0 199 -59t66 -189v-216q0 -128 -66 -189.5t-198 -61.5h-216v715zM259 587h-45v-459h46q56 0 78.5 27.5t22.5 96.5v212q0 69 -22.5 96t-79.5 27z" />
    <glyph glyph-name="E" unicode="E" horiz-adv-x="458" 
d="M50 0v715h365v-128h-201v-154h160v-121h-160v-184h213v-128h-377z" />
    <glyph glyph-name="F" unicode="F" horiz-adv-x="440" 
d="M50 0v715h362v-128h-198v-185h162v-124h-162v-278h-164z" />
    <glyph glyph-name="G" unicode="G" horiz-adv-x="574" 
d="M409 0v76q-41 -88 -152 -88q-100 0 -159 65t-59 183v241q0 120 69 184t184 64q108 0 171 -53.5t66 -171.5h-161q-3 52 -21.5 72.5t-55.5 20.5q-42 0 -62 -27t-20 -87v-246q0 -59 19.5 -87t65.5 -28q43 0 62 25t19 79v50h-75v113h236v-385h-127z" />
    <glyph glyph-name="H" unicode="H" horiz-adv-x="569" 
d="M50 0v715h164v-284h141v284h164v-715h-164v299h-141v-299h-164z" />
    <glyph glyph-name="I" unicode="I" horiz-adv-x="271" 
d="M53 0v715h165v-715h-165z" />
    <glyph glyph-name="J" unicode="J" horiz-adv-x="483" 
d="M231 -12q-109 0 -160.5 51t-51.5 153v30h157v-26q0 -41 11 -58t38 -17t37 18.5t10 64.5v511h165v-512q0 -215 -206 -215z" />
    <glyph glyph-name="K" unicode="K" horiz-adv-x="549" 
d="M536 0h-180l-142 319v-319h-164v715h164v-291l146 291h167l-169 -327z" />
    <glyph glyph-name="L" unicode="L" horiz-adv-x="434" 
d="M50 0v715h164v-585h190v-130h-354z" />
    <glyph glyph-name="M" unicode="M" horiz-adv-x="689" 
d="M50 0v715h218l55 -320l17 -132l17 132l52 320h226v-715h-158v372l5 151l-23 -154l-67 -369h-117l-67 369l-23 154l4 -151v-372h-139z" />
    <glyph glyph-name="N" unicode="N" horiz-adv-x="571" 
d="M50 0v715h181l146 -398v398h145v-715h-159l-169 456v-456h-144z" />
    <glyph glyph-name="O" unicode="O" horiz-adv-x="586" 
d="M294 -12q-119 0 -186.5 64t-67.5 184v241q0 119 70 183.5t183 64.5q117 0 185 -62.5t68 -183.5v-239q0 -121 -67 -186.5t-185 -65.5zM293 120q84 0 84 116v242q0 116 -84 116q-83 0 -83 -116v-242q0 -60 20 -88t63 -28z" />
    <glyph glyph-name="P" unicode="P" horiz-adv-x="512" 
d="M50 0v715h209q119 0 172.5 -48t53.5 -149v-53q0 -99 -55 -144.5t-167 -45.5h-49v-275h-164zM214 389h39q38 0 55.5 18.5t17.5 60.5v47q0 42 -17.5 59t-55.5 17h-39v-202z" />
    <glyph glyph-name="Q" unicode="Q" horiz-adv-x="587" 
d="M433 -135q-38 0 -74 16.5t-61.5 32.5t-35.5 16q-21 0 -26 -27h-95q5 69 41 108q-142 49 -142 225v241q0 119 70 183.5t183 64.5q117 0 185.5 -62.5t68.5 -183.5v-239q0 -195 -178 -229q48 -24 61 -24q20 0 20 22h94q-1 -70 -31.5 -107t-79.5 -37zM293 117q84 0 84 116
v245q0 115 -84 115q-83 0 -83 -115v-245q0 -60 20 -88t63 -28z" />
    <glyph glyph-name="R" unicode="R" horiz-adv-x="541" 
d="M398 345q56 -12 79.5 -49.5t23.5 -104.5v-191h-164v198q0 49 -14 67t-57 18h-51v-283h-165v715h236q208 0 208 -176v-53q0 -62 -24 -94.5t-72 -46.5zM215 391h49q37 0 53.5 19.5t16.5 61.5v43q0 41 -17.5 58t-53.5 17h-48v-199z" />
    <glyph glyph-name="S" unicode="S" horiz-adv-x="509" 
d="M255 -12q-225 0 -226 220h159q0 -54 15.5 -75t50.5 -21q59 0 59 71q0 23 -5 38.5t-21.5 29t-29.5 21t-47 23.5q-91 42 -131.5 93t-40.5 139q0 93 56.5 145.5t156.5 52.5q211 0 212 -204h-154q-1 45 -16 62t-43 17q-52 0 -52 -60q0 -37 18.5 -56.5t71.5 -45.5
q38 -17 60 -29t50 -32.5t42 -42.5t24.5 -56.5t10.5 -77.5q0 -102 -57.5 -157t-162.5 -55z" />
    <glyph glyph-name="T" unicode="T" horiz-adv-x="472" 
d="M153 0v587h-131v128h428v-128h-132v-587h-165z" />
    <glyph glyph-name="U" unicode="U" horiz-adv-x="566" 
d="M353 715h166v-500q0 -115 -61.5 -171t-175.5 -56t-174.5 56.5t-60.5 169.5v501h165v-497q0 -52 16 -74.5t55 -22.5q37 0 53.5 23t16.5 76v495z" />
    <glyph glyph-name="V" unicode="V" horiz-adv-x="532" 
d="M276 185l91 530h151l-148 -715h-207l-149 715h171z" />
    <glyph glyph-name="W" unicode="W" horiz-adv-x="742" 
d="M132 0l-116 715h165l58 -447l75 447h122l79 -450l60 450h152l-116 -715h-158l-77 419l-78 -419h-166z" />
    <glyph glyph-name="X" unicode="X" horiz-adv-x="555" 
d="M16 0l144 368l-135 347h181l78 -232l73 232h164l-126 -342l144 -373h-181l-90 261l-87 -261h-165z" />
    <glyph glyph-name="Y" unicode="Y" horiz-adv-x="514" 
d="M177 0v303l-167 412h177l82 -251l81 251h154l-161 -413v-302h-166z" />
    <glyph glyph-name="Z" unicode="Z" horiz-adv-x="464" 
d="M13 0v19l220 571h-191v125h404v-18l-221 -570h209v-127h-421z" />
    <glyph glyph-name="bracketleft" unicode="[" horiz-adv-x="322" 
d="M52 -140v906h238v-107h-95v-691h95v-108h-238z" />
    <glyph glyph-name="backslash" unicode="\" horiz-adv-x="374" 
d="M127 767l263 -906h-121l-264 906h122z" />
    <glyph glyph-name="bracketright" unicode="]" horiz-adv-x="322" 
d="M270 -140h-239v108h95v691h-95v107h239v-906z" />
    <glyph glyph-name="asciicircum" unicode="^" horiz-adv-x="435" 
d="M23 425l127 290h137l126 -290h-133l-64 157l-62 -157h-131z" />
    <glyph glyph-name="underscore" unicode="_" horiz-adv-x="354" 
d="M4 -146v78h346v-78h-346z" />
    <glyph glyph-name="grave" unicode="`" 
d="M157 575l-89 157h157l42 -157h-110z" />
    <glyph glyph-name="a" unicode="a" horiz-adv-x="457" 
d="M162 -10q-61 0 -97.5 35.5t-36.5 107.5v21q0 82 49.5 118.5t147.5 36.5h45v53q0 34 -8.5 49.5t-33.5 15.5t-35 -14.5t-11 -44.5h-141q1 83 51 124t140 41q186 0 186 -166v-367h-145v52q-30 -62 -111 -62zM218 91q52 0 52 59v71h-36q-31 0 -45 -13.5t-14 -46.5v-17
q0 -53 43 -53z" />
    <glyph glyph-name="b" unicode="b" horiz-adv-x="486" 
d="M40 743h148v-283q38 73 121 73q67 0 106.5 -48t39.5 -142v-162q0 -95 -41.5 -143t-109.5 -48q-86 0 -116 71v-61h-148v743zM187 185q0 -85 61 -85q57 0 57 79v166q0 78 -57 78q-61 0 -61 -84v-154z" />
    <glyph glyph-name="c" unicode="c" horiz-adv-x="449" 
d="M234 -10q-94 0 -149 48.5t-55 148.5v145q0 99 55.5 150t144.5 51q189 0 193 -184h-139q-1 40 -13 56t-37 16q-55 0 -55 -80v-159q0 -44 14 -63t44 -19q54 0 54 80h134q-3 -190 -191 -190z" />
    <glyph glyph-name="d" unicode="d" horiz-adv-x="486" 
d="M447 743v-743h-149v65q-34 -75 -120 -75q-66 0 -106.5 48t-40.5 143v160q0 95 41.5 143.5t110.5 48.5q85 0 115 -69v279h149zM300 185v154q0 86 -62 86q-57 0 -57 -81v-165q0 -77 55 -77q64 0 64 83z" />
    <glyph glyph-name="e" unicode="e" horiz-adv-x="463" 
d="M237 -10q-98 0 -152.5 50.5t-54.5 148.5v143q0 97 56.5 149t146.5 52q93 0 146.5 -48t53.5 -150v-110h-255v-43q0 -46 15 -66t46 -20q53 0 57 65h138q-6 -171 -197 -171zM178 341v-21h113v27q-1 47 -14 66t-41 19q-58 0 -58 -91z" />
    <glyph glyph-name="f" unicode="f" horiz-adv-x="314" 
d="M66 0v419h-50v104h50v70q0 77 42.5 115.5t121.5 38.5q41 0 64 -7v-110q-10 4 -33 4q-47 0 -47 -47v-64h79v-104h-79v-419h-148z" />
    <glyph glyph-name="g" unicode="g" horiz-adv-x="486" 
d="M233 -183q-191 0 -201 152h144q5 -45 59 -45q63 0 63 72v82q-34 -73 -120 -73q-66 0 -106.5 47t-40.5 137v159q0 90 42 137.5t110 47.5q85 0 115 -69v59h149v-523q0 -183 -214 -183zM236 111q64 0 64 80v153q0 81 -62 81q-57 0 -57 -76v-164q0 -74 55 -74z" />
    <glyph glyph-name="h" unicode="h" horiz-adv-x="475" 
d="M40 0v743h148v-287q37 77 126 77q58 0 90.5 -37.5t32.5 -110.5v-385h-148v359q0 57 -46 57q-55 0 -55 -64v-352h-148z" />
    <glyph glyph-name="i" unicode="i" horiz-adv-x="232" 
d="M42 0v523h148v-523h-148zM116 567q-37 0 -60 22.5t-23 57.5q0 33 23.5 55.5t59.5 22.5q35 0 59 -22.5t24 -55.5q0 -34 -24 -57t-59 -23z" />
    <glyph glyph-name="j" unicode="j" horiz-adv-x="231" 
d="M-19 -177v110q33 4 47 17.5t14 42.5v530h147v-536q0 -82 -47.5 -122.5t-160.5 -41.5zM116 567q-37 0 -60 22.5t-23 57.5q0 33 23.5 55.5t59.5 22.5q35 0 59 -22.5t24 -55.5q0 -34 -24 -57t-59 -23z" />
    <glyph glyph-name="k" unicode="k" horiz-adv-x="458" 
d="M40 0v743h148v-435l104 215h148l-121 -238l129 -285h-160l-100 233v-233h-148z" />
    <glyph glyph-name="l" unicode="l" horiz-adv-x="234" 
d="M43 0v743h148v-743h-148z" />
    <glyph glyph-name="m" unicode="m" horiz-adv-x="702" 
d="M40 0v523h148v-66q35 76 120 76q82 0 107 -72q43 72 128 72q57 0 89 -38t32 -111v-384h-148v361q0 55 -40 55q-50 0 -50 -62v-354h-147v361q0 55 -41 55q-50 0 -50 -62v-354h-148z" />
    <glyph glyph-name="n" unicode="n" horiz-adv-x="475" 
d="M40 0v523h148v-67q37 77 126 77q58 0 90.5 -37.5t32.5 -110.5v-385h-148v359q0 57 -46 57q-55 0 -55 -64v-352h-148z" />
    <glyph glyph-name="o" unicode="o" horiz-adv-x="476" 
d="M237 -10q-92 0 -149.5 51.5t-57.5 146.5v145q0 96 57.5 148t150.5 52t150.5 -51t57.5 -147v-145q0 -96 -58 -148t-151 -52zM238 101q59 0 59 82v157q0 83 -59 83t-59 -82v-157q0 -83 59 -83z" />
    <glyph glyph-name="p" unicode="p" horiz-adv-x="486" 
d="M40 523h148v-63q38 73 121 73q67 0 106.5 -48t39.5 -142v-162q0 -95 -41.5 -143t-109.5 -48q-42 0 -72 18.5t-44 50.5v-231h-148v695zM187 185q0 -85 61 -85q57 0 57 80v164q0 78 -57 78q-61 0 -61 -83v-154z" />
    <glyph glyph-name="q" unicode="q" horiz-adv-x="486" 
d="M447 523v-695h-149v236q-34 -74 -120 -74q-66 0 -106.5 48t-40.5 143v160q0 95 41.5 143.5t110.5 48.5q85 0 115 -69v59h149zM300 185v154q0 85 -62 85q-57 0 -57 -80v-164q0 -78 55 -78q64 0 64 83z" />
    <glyph glyph-name="r" unicode="r" horiz-adv-x="338" 
d="M40 0v523h148v-84q34 91 128 88v-149q-128 2 -128 -81v-297h-148z" />
    <glyph glyph-name="s" unicode="s" horiz-adv-x="425" 
d="M213 -10q-92 0 -140.5 42.5t-48.5 125.5h138q1 -36 12.5 -51t37.5 -15q42 0 42 47q0 17 -12.5 30t-25 18.5t-49.5 20.5q-73 29 -106 66.5t-33 105.5q0 73 49.5 113t129.5 40q177 0 181 -158h-137q0 56 -45 56q-39 0 -39 -40q0 -16 9.5 -26.5t22 -17t46.5 -21.5
q79 -31 116 -67t37 -104q0 -82 -47.5 -123.5t-137.5 -41.5z" />
    <glyph glyph-name="t" unicode="t" horiz-adv-x="318" 
d="M65 626h149v-103h79v-104h-79v-261q0 -46 43 -46q26 0 36 5v-112q-25 -10 -68 -10q-84 0 -122 36t-38 114v274h-49v104h49v103z" />
    <glyph glyph-name="u" unicode="u" horiz-adv-x="475" 
d="M435 523v-523h-149v66q-35 -76 -121 -76q-59 0 -93.5 38t-34.5 110v385h149v-362q0 -57 45 -57q55 0 55 64v355h149z" />
    <glyph glyph-name="v" unicode="v" horiz-adv-x="456" 
d="M145 0l-134 523h157l69 -347l67 347h140l-132 -523h-167z" />
    <glyph glyph-name="w" unicode="w" horiz-adv-x="656" 
d="M120 0l-108 523h152l48 -310l60 310h127l55 -310l53 310h137l-115 -523h-146l-55 307l-60 -307h-148z" />
    <glyph glyph-name="x" unicode="x" horiz-adv-x="463" 
d="M13 0l119 267l-112 256h163l55 -160l53 160h148l-113 -247l123 -276h-162l-62 174l-66 -174h-146z" />
    <glyph glyph-name="y" unicode="y" horiz-adv-x="458" 
d="M170 523l70 -295l66 295h141l-200 -695h-145l61 209l-152 486h159z" />
    <glyph glyph-name="z" unicode="z" horiz-adv-x="393" 
d="M15 0v15l168 394h-149v114h345v-16l-174 -393h161v-114h-351z" />
    <glyph glyph-name="braceleft" unicode="{" horiz-adv-x="336" 
d="M25 264v105q97 1 84 84l-19 116q-17 103 36.5 150t178.5 48v-107q-47 -4 -64 -22.5t-11 -62.5l18 -129q15 -101 -95 -128q109 -28 95 -129l-18 -133q-6 -46 11 -65.5t64 -22.5v-108q-124 1 -177.5 49.5t-37.5 148.5l19 122q12 81 -84 84z" />
    <glyph glyph-name="bar" unicode="|" horiz-adv-x="219" 
d="M55 -139v906h109v-906h-109z" />
    <glyph glyph-name="braceright" unicode="}" horiz-adv-x="336" 
d="M311 264q-96 -3 -84 -84l20 -122q16 -100 -38 -148.5t-178 -49.5v108q47 3 64.5 22.5t10.5 65.5l-18 133q-14 101 95 129q-109 27 -95 128l18 129q7 44 -10.5 62.5t-64.5 22.5v107q126 -1 179 -48t37 -150l-20 -116q-13 -83 84 -84v-105z" />
    <glyph glyph-name="nbspace" unicode="&#xa0;" horiz-adv-x="263" 
 />
    <glyph glyph-name="dieresis" unicode="&#xa8;" 
d="M113 570q-33 0 -55.5 21.5t-22.5 53.5t22.5 54.5t55.5 22.5t55.5 -22.5t22.5 -54.5t-22.5 -53.5t-55.5 -21.5zM298 570q-34 0 -56 21.5t-22 53.5q0 33 22 55t56 22q32 0 55 -22.5t23 -54.5q0 -31 -23 -53t-55 -22z" />
    <glyph glyph-name="macron" unicode="&#xaf;" 
d="M76 594v94h257v-94h-257z" />
    <glyph glyph-name="degree" unicode="&#xb0;" horiz-adv-x="371" 
d="M185 505q30 0 50 21.5t20 53.5q0 34 -19.5 56.5t-50.5 22.5q-30 0 -50 -22.5t-20 -56.5q0 -32 20 -53.5t50 -21.5zM185 439q-60 0 -103 42t-43 99q0 60 42.5 102t103.5 42q62 0 104.5 -42t42.5 -102q0 -58 -42.5 -99.5t-104.5 -41.5z" />
    <glyph glyph-name="acute" unicode="&#xb4;" 
d="M140 575l42 157h157l-88 -157h-111z" />
    <glyph glyph-name="cedilla" unicode="&#xb8;" 
d="M211 -211q-103 0 -114 87h77q4 -25 31 -25q28 0 28 28q0 29 -30 29q-16 0 -29 -11l-35 34l43 69h65l-27 -41q42 5 70 -15.5t28 -64.5q0 -43 -29 -66.5t-78 -23.5z" />
    <glyph glyph-name="onequarter" unicode="&#xbc;" horiz-adv-x="706" 
d="M95 318v281l-68 -46v100l82 62h102v-397h-116zM47 0l495 715h85l-494 -715h-86zM528 0v81h-160v39l132 277h139v-238h42v-78h-42v-81h-111zM465 159h66v153z" />
    <glyph glyph-name="onehalf" unicode="&#xbd;" horiz-adv-x="734" 
d="M425 0v15l103 134q34 45 49 73t15 53v8q0 33 -26 33q-28 0 -31 -51h-104q1 69 37.5 103.5t103.5 34.5q66 0 99.5 -30t33.5 -83v-7q0 -39 -17 -71.5t-53 -78.5l-37 -48h109v-85h-282zM49 0l495 715h85l-494 -715h-86zM95 318v281l-68 -46v100l82 62h102v-397h-116z" />
    <glyph glyph-name="threequarters" unicode="&#xbe;" horiz-adv-x="750" 
d="M572 0v81h-160v39l132 277h139v-238h42v-78h-42v-81h-111zM166 312q-74 0 -107.5 31t-34.5 95h102q1 -44 33 -44q31 0 31 38v14q0 22 -10 31.5t-34 9.5h-20v68h20q44 0 44 40v7q0 37 -28 37q-30 0 -31 -43h-102q5 125 137 125q63 0 98 -26.5t35 -78.5v-10q0 -62 -64 -79
q32 -6 51 -28t18 -57v-16q0 -54 -35 -84t-103 -30zM98 0l495 715h85l-494 -715h-86zM509 159h66v153z" />
    <glyph glyph-name="Agrave" unicode="&#xc0;" horiz-adv-x="542" 
d="M356 0l-24 143h-143l-23 -143h-152l141 715h230l141 -715h-170zM219 753l-82 137h160l38 -137h-116zM260 573l-52 -315h105z" />
    <glyph glyph-name="Aacute" unicode="&#xc1;" horiz-adv-x="542" 
d="M356 0l-24 143h-143l-23 -143h-152l141 715h230l141 -715h-170zM205 753l40 137h159l-83 -137h-116zM260 573l-52 -315h105z" />
    <glyph glyph-name="Acircumflex" unicode="&#xc2;" horiz-adv-x="542" 
d="M356 0l-24 143h-143l-23 -143h-152l141 715h230l141 -715h-170zM116 753l92 137h129l88 -137h-104l-51 47l-52 -47h-102zM260 573l-52 -315h105z" />
    <glyph glyph-name="Atilde" unicode="&#xc3;" horiz-adv-x="542" 
d="M356 0l-24 143h-143l-23 -143h-152l141 715h230l141 -715h-170zM326 754q-27 0 -60 14.5t-42 14.5q-22 0 -26 -30h-84q4 70 31 104.5t68 34.5q25 0 59 -14t45 -14q21 0 26 29h84q-4 -70 -32 -104.5t-69 -34.5zM260 573l-52 -315h105z" />
    <glyph glyph-name="Adieresis" unicode="&#xc4;" horiz-adv-x="542" 
d="M356 0l-24 143h-143l-23 -143h-152l141 715h230l141 -715h-170zM176 753q-31 0 -52.5 21t-21.5 52t21.5 52t52.5 21q32 0 54 -21t22 -52t-22 -52t-54 -21zM363 753q-31 0 -52.5 21t-21.5 52t21.5 52t52.5 21q32 0 54 -21t22 -52t-22 -52t-54 -21zM260 573l-52 -315h105z
" />
    <glyph glyph-name="Aring" unicode="&#xc5;" horiz-adv-x="542" 
d="M356 0l-24 143h-143l-23 -143h-152l141 715h230l141 -715h-170zM270 739q-44 0 -74.5 29.5t-30.5 71.5t30.5 71.5t74.5 29.5t74.5 -29.5t30.5 -71.5t-30.5 -71.5t-74.5 -29.5zM260 573l-52 -315h105zM270 797q17 0 27.5 12t10.5 31q0 18 -11 30t-27 12q-17 0 -27.5 -12
t-10.5 -30q0 -19 10.5 -31t27.5 -12z" />
    <glyph glyph-name="AE" unicode="&#xc6;" horiz-adv-x="723" 
d="M13 0l189 715h481v-128h-192v-154h152v-121h-152v-183h202v-129h-366v148h-126l-36 -148h-152zM309 587l-80 -325h98v325h-18z" />
    <glyph glyph-name="Ccedilla" unicode="&#xc7;" horiz-adv-x="551" 
d="M274 -211q-103 0 -114 87h77q4 -25 31 -25q28 0 28 28q0 29 -30 29q-16 0 -29 -11l-35 34l37 60q-97 13 -148.5 76t-51.5 171v238q0 119 68 184t179 65q228 0 235 -228h-166q-2 54 -18.5 75.5t-53.5 21.5q-74 0 -74 -114v-244q0 -61 18.5 -88.5t60.5 -27.5q75 0 76 102
h161q-1 -115 -59.5 -173t-163.5 -61l-19 -29q42 5 70 -15.5t28 -64.5q0 -43 -29 -66.5t-78 -23.5z" />
    <glyph glyph-name="Egrave" unicode="&#xc8;" horiz-adv-x="454" 
d="M182 753l-82 137h160l38 -137h-116zM50 0v715h365v-128h-201v-154h160v-121h-160v-184h213v-128h-377z" />
    <glyph glyph-name="Eacute" unicode="&#xc9;" horiz-adv-x="454" 
d="M170 753l40 137h159l-83 -137h-116zM50 0v715h365v-128h-201v-154h160v-121h-160v-184h213v-128h-377z" />
    <glyph glyph-name="Ecircumflex" unicode="&#xca;" horiz-adv-x="454" 
d="M79 753l92 137h129l88 -137h-104l-51 47l-52 -47h-102zM50 0v715h365v-128h-201v-154h160v-121h-160v-184h213v-128h-377z" />
    <glyph glyph-name="Edieresis" unicode="&#xcb;" horiz-adv-x="454" 
d="M50 0v715h365v-128h-201v-154h160v-121h-160v-184h213v-128h-377zM140 753q-31 0 -52.5 21t-21.5 52t21.5 52t52.5 21q32 0 54 -21t22 -52t-22 -52t-54 -21zM327 753q-31 0 -52.5 21t-21.5 52t21.5 52t52.5 21q32 0 54 -21t22 -52t-22 -52t-54 -21z" />
    <glyph glyph-name="Igrave" unicode="&#xcc;" horiz-adv-x="273" 
d="M53 0v715h165v-715h-165zM85 753l-82 137h160l38 -137h-116z" />
    <glyph glyph-name="Iacute" unicode="&#xcd;" horiz-adv-x="273" 
d="M53 0v715h165v-715h-165zM73 753l40 137h159l-83 -137h-116z" />
    <glyph glyph-name="Icircumflex" unicode="&#xce;" horiz-adv-x="273" 
d="M53 0v715h165v-715h-165zM-18 753l92 137h129l88 -137h-104l-51 47l-52 -47h-102z" />
    <glyph glyph-name="Idieresis" unicode="&#xcf;" horiz-adv-x="273" 
d="M53 0v715h165v-715h-165zM43 753q-31 0 -52.5 21t-21.5 52t21.5 52t52.5 21q32 0 54 -21t22 -52t-22 -52t-54 -21zM230 753q-31 0 -52.5 21t-21.5 52t21.5 52t52.5 21q32 0 54 -21t22 -52t-22 -52t-54 -21z" />
    <glyph glyph-name="Ntilde" unicode="&#xd1;" horiz-adv-x="573" 
d="M354 754q-27 0 -60 14.5t-42 14.5q-22 0 -26 -30h-84q4 70 31 104.5t68 34.5q25 0 59.5 -14t44.5 -14q21 0 26 29h84q-4 -70 -32 -104.5t-69 -34.5zM50 0v715h181l146 -398v398h145v-715h-159l-169 456v-456h-144z" />
    <glyph glyph-name="Ograve" unicode="&#xd2;" horiz-adv-x="586" 
d="M240 753l-82 137h160l38 -137h-116zM294 -12q-119 0 -186.5 64t-67.5 184v241q0 119 70 183.5t183 64.5q117 0 185 -62.5t68 -183.5v-239q0 -121 -67 -186.5t-185 -65.5zM293 120q84 0 84 116v242q0 116 -84 116q-83 0 -83 -116v-242q0 -60 20 -88t63 -28z" />
    <glyph glyph-name="Oacute" unicode="&#xd3;" horiz-adv-x="586" 
d="M227 753l40 137h159l-83 -137h-116zM294 -12q-119 0 -186.5 64t-67.5 184v241q0 119 70 183.5t183 64.5q117 0 185 -62.5t68 -183.5v-239q0 -121 -67 -186.5t-185 -65.5zM293 120q84 0 84 116v242q0 116 -84 116q-83 0 -83 -116v-242q0 -60 20 -88t63 -28z" />
    <glyph glyph-name="Ocircumflex" unicode="&#xd4;" horiz-adv-x="586" 
d="M137 753l92 137h129l88 -137h-104l-51 47l-52 -47h-102zM294 -12q-119 0 -186.5 64t-67.5 184v241q0 119 70 183.5t183 64.5q117 0 185 -62.5t68 -183.5v-239q0 -121 -67 -186.5t-185 -65.5zM293 120q84 0 84 116v242q0 116 -84 116q-83 0 -83 -116v-242q0 -60 20 -88
t63 -28z" />
    <glyph glyph-name="Otilde" unicode="&#xd5;" horiz-adv-x="586" 
d="M348 754q-27 0 -60 14.5t-42 14.5q-22 0 -26 -30h-84q4 70 31 104.5t68 34.5q25 0 59 -14t45 -14q21 0 26 29h84q-4 -70 -32 -104.5t-69 -34.5zM294 -12q-119 0 -186.5 64t-67.5 184v241q0 119 70 183.5t183 64.5q117 0 185 -62.5t68 -183.5v-239q0 -121 -67 -186.5
t-185 -65.5zM293 120q84 0 84 116v242q0 116 -84 116q-83 0 -83 -116v-242q0 -60 20 -88t63 -28z" />
    <glyph glyph-name="Odieresis" unicode="&#xd6;" horiz-adv-x="586" 
d="M198 753q-31 0 -52.5 21t-21.5 52t21.5 52t52.5 21q32 0 54 -21t22 -52t-22 -52t-54 -21zM385 753q-31 0 -52.5 21t-21.5 52t21.5 52t52.5 21q32 0 54 -21t22 -52t-22 -52t-54 -21zM294 -12q-119 0 -186.5 64t-67.5 184v241q0 119 70 183.5t183 64.5q117 0 185 -62.5
t68 -183.5v-239q0 -121 -67 -186.5t-185 -65.5zM293 120q84 0 84 116v242q0 116 -84 116q-83 0 -83 -116v-242q0 -60 20 -88t63 -28z" />
    <glyph glyph-name="Oslash" unicode="&#xd8;" horiz-adv-x="586" 
d="M72 -24l-47 31l51 77q-44 62 -44 159v227q0 121 72.5 188t188.5 67q107 0 175 -53l39 59l48 -32l-46 -69q45 -62 45 -158v-224q0 -124 -71 -192t-192 -68q-109 0 -175 54zM293 120q45 0 69.5 32t24.5 93v202l-180 -268q21 -59 86 -59zM199 473v-205l179 269
q-21 58 -85 58q-94 0 -94 -122z" />
    <glyph glyph-name="Ugrave" unicode="&#xd9;" horiz-adv-x="562" 
d="M228 753l-82 137h160l38 -137h-116zM353 715h166v-500q0 -115 -61.5 -171t-175.5 -56t-174.5 56.5t-60.5 169.5v501h165v-497q0 -52 16 -74.5t55 -22.5q37 0 53.5 23t16.5 76v495z" />
    <glyph glyph-name="Uacute" unicode="&#xda;" horiz-adv-x="562" 
d="M215 753l40 137h159l-83 -137h-116zM353 715h166v-500q0 -115 -61.5 -171t-175.5 -56t-174.5 56.5t-60.5 169.5v501h165v-497q0 -52 16 -74.5t55 -22.5q37 0 53.5 23t16.5 76v495z" />
    <glyph glyph-name="Ucircumflex" unicode="&#xdb;" horiz-adv-x="562" 
d="M125 753l92 137h129l88 -137h-104l-51 47l-52 -47h-102zM353 715h166v-500q0 -115 -61.5 -171t-175.5 -56t-174.5 56.5t-60.5 169.5v501h165v-497q0 -52 16 -74.5t55 -22.5q37 0 53.5 23t16.5 76v495z" />
    <glyph glyph-name="Udieresis" unicode="&#xdc;" horiz-adv-x="562" 
d="M353 715h166v-500q0 -115 -61.5 -171t-175.5 -56t-174.5 56.5t-60.5 169.5v501h165v-497q0 -52 16 -74.5t55 -22.5q37 0 53.5 23t16.5 76v495zM185 753q-31 0 -52.5 21t-21.5 52t21.5 52t52.5 21q32 0 54 -21t22 -52t-22 -52t-54 -21zM372 753q-31 0 -52.5 21t-21.5 52
t21.5 52t52.5 21q32 0 54 -21t22 -52t-22 -52t-54 -21z" />
    <glyph glyph-name="Yacute" unicode="&#xdd;" horiz-adv-x="516" 
d="M177 0v303l-167 412h177l82 -251l81 251h154l-161 -413v-302h-166zM200 753l40 137h159l-83 -137h-116z" />
    <glyph glyph-name="agrave" unicode="&#xe0;" horiz-adv-x="450" 
d="M162 -10q-61 0 -97.5 35.5t-36.5 107.5v21q0 82 49.5 118.5t147.5 36.5h45v53q0 34 -8.5 49.5t-33.5 15.5t-35 -14.5t-11 -44.5h-141q1 83 51 124t140 41q186 0 186 -166v-367h-145v52q-30 -62 -111 -62zM177 575l-89 157h157l42 -157h-110zM218 91q52 0 52 59v71h-36
q-31 0 -45 -13.5t-14 -46.5v-17q0 -53 43 -53z" />
    <glyph glyph-name="aacute" unicode="&#xe1;" horiz-adv-x="450" 
d="M162 -10q-61 0 -97.5 35.5t-36.5 107.5v21q0 82 49.5 118.5t147.5 36.5h45v53q0 34 -8.5 49.5t-33.5 15.5t-35 -14.5t-11 -44.5h-141q1 83 51 124t140 41q186 0 186 -166v-367h-145v52q-30 -62 -111 -62zM167 575l42 157h157l-88 -157h-111zM218 91q52 0 52 59v71h-36
q-31 0 -45 -13.5t-14 -46.5v-17q0 -53 43 -53z" />
    <glyph glyph-name="acircumflex" unicode="&#xe2;" horiz-adv-x="450" 
d="M162 -10q-61 0 -97.5 35.5t-36.5 107.5v21q0 82 49.5 118.5t147.5 36.5h45v53q0 34 -8.5 49.5t-33.5 15.5t-35 -14.5t-11 -44.5h-141q1 83 51 124t140 41q186 0 186 -166v-367h-145v52q-30 -62 -111 -62zM74 575l95 156h118l91 -156h-102l-50 56l-51 -56h-101zM218 91
q52 0 52 59v71h-36q-31 0 -45 -13.5t-14 -46.5v-17q0 -53 43 -53z" />
    <glyph glyph-name="atilde" unicode="&#xe3;" horiz-adv-x="450" 
d="M162 -10q-61 0 -97.5 35.5t-36.5 107.5v21q0 82 49.5 118.5t147.5 36.5h45v53q0 34 -8.5 49.5t-33.5 15.5t-35 -14.5t-11 -44.5h-141q1 83 51 124t140 41q186 0 186 -166v-367h-145v52q-30 -62 -111 -62zM278 581q-26 0 -56 14t-39 14q-10 0 -17.5 -8t-8.5 -21h-81
q4 71 28.5 106t65.5 35q25 0 56.5 -14.5t41.5 -14.5q21 0 26 30h81q-4 -71 -30.5 -106t-66.5 -35zM218 91q52 0 52 59v71h-36q-31 0 -45 -13.5t-14 -46.5v-17q0 -53 43 -53z" />
    <glyph glyph-name="adieresis" unicode="&#xe4;" horiz-adv-x="450" 
d="M162 -10q-61 0 -97.5 35.5t-36.5 107.5v21q0 82 49.5 118.5t147.5 36.5h45v53q0 34 -8.5 49.5t-33.5 15.5t-35 -14.5t-11 -44.5h-141q1 83 51 124t140 41q186 0 186 -166v-367h-145v52q-30 -62 -111 -62zM318 570q-34 0 -56 21.5t-22 53.5q0 33 22 55t56 22
q32 0 55 -22.5t23 -54.5q0 -31 -23 -53t-55 -22zM133 570q-33 0 -55.5 21.5t-22.5 53.5t22.5 54.5t55.5 22.5t55.5 -22.5t22.5 -54.5t-22.5 -53.5t-55.5 -21.5zM218 91q52 0 52 59v71h-36q-31 0 -45 -13.5t-14 -46.5v-17q0 -53 43 -53z" />
    <glyph glyph-name="aring" unicode="&#xe5;" horiz-adv-x="450" 
d="M162 -10q-61 0 -97.5 35.5t-36.5 107.5v21q0 82 49.5 118.5t147.5 36.5h45v53q0 34 -8.5 49.5t-33.5 15.5t-35 -14.5t-11 -44.5h-141q1 83 51 124t140 41q186 0 186 -166v-367h-145v52q-30 -62 -111 -62zM225 573q-43 0 -73.5 29.5t-30.5 70.5t30.5 71t73.5 30t73.5 -30
t30.5 -71t-30.5 -70.5t-73.5 -29.5zM218 91q52 0 52 59v71h-36q-31 0 -45 -13.5t-14 -46.5v-17q0 -53 43 -53zM225 631q16 0 27 12t11 30t-11 30t-27 12t-27 -12t-11 -30t11 -30t27 -12z" />
    <glyph glyph-name="ae" unicode="&#xe6;" horiz-adv-x="698" 
d="M474 -10q-104 0 -148 67q-46 -67 -143 -67q-75 0 -115 37t-40 109v22q0 154 194 154h48v53q0 34 -9 48.5t-34 14.5q-24 0 -34 -13.5t-12 -46.5h-141q3 82 51.5 123.5t133.5 41.5q92 0 126 -46q46 46 124 46q89 0 141.5 -49t52.5 -152v-100h-256v-46q0 -47 15 -68t48 -21
q27 0 40 15.5t15 49.5h138q-5 -88 -53 -130t-142 -42zM413 336v-24h114v38q-1 45 -14 63t-40 18q-60 0 -60 -95zM215 92q55 0 55 60v79h-36q-31 0 -45 -13.5t-14 -44.5v-29q0 -52 40 -52z" />
    <glyph glyph-name="ccedilla" unicode="&#xe7;" horiz-adv-x="448" 
d="M215 -211q-103 0 -114 87h77q4 -25 31 -25q28 0 28 28q0 29 -30 29q-16 0 -29 -11l-35 34l39 63q-152 25 -152 193v145q0 99 55.5 150t144.5 51q189 0 193 -184h-139q-1 40 -13 56t-37 16q-55 0 -55 -80v-159q0 -44 14 -63t44 -19q54 0 54 80h134q-3 -184 -181 -190
l-20 -31q42 5 70 -15.5t28 -64.5q0 -43 -29 -66.5t-78 -23.5z" />
    <glyph glyph-name="egrave" unicode="&#xe8;" horiz-adv-x="461" 
d="M237 -10q-98 0 -152.5 50.5t-54.5 148.5v143q0 97 56.5 149t146.5 52q93 0 146.5 -48t53.5 -150v-110h-255v-43q0 -46 15 -66t46 -20q53 0 57 65h138q-6 -171 -197 -171zM182 575l-89 157h157l42 -157h-110zM178 341v-21h113v27q-1 47 -14 66t-41 19q-58 0 -58 -91z" />
    <glyph glyph-name="eacute" unicode="&#xe9;" horiz-adv-x="461" 
d="M237 -10q-98 0 -152.5 50.5t-54.5 148.5v143q0 97 56.5 149t146.5 52q93 0 146.5 -48t53.5 -150v-110h-255v-43q0 -46 15 -66t46 -20q53 0 57 65h138q-6 -171 -197 -171zM174 575l42 157h157l-88 -157h-111zM178 341v-21h113v27q-1 47 -14 66t-41 19q-58 0 -58 -91z" />
    <glyph glyph-name="ecircumflex" unicode="&#xea;" horiz-adv-x="461" 
d="M237 -10q-98 0 -152.5 50.5t-54.5 148.5v143q0 97 56.5 149t146.5 52q93 0 146.5 -48t53.5 -150v-110h-255v-43q0 -46 15 -66t46 -20q53 0 57 65h138q-6 -171 -197 -171zM78 575l95 156h118l91 -156h-102l-50 56l-51 -56h-101zM178 341v-21h113v27q-1 47 -14 66t-41 19
q-58 0 -58 -91z" />
    <glyph glyph-name="edieresis" unicode="&#xeb;" horiz-adv-x="461" 
d="M237 -10q-98 0 -152.5 50.5t-54.5 148.5v143q0 97 56.5 149t146.5 52q93 0 146.5 -48t53.5 -150v-110h-255v-43q0 -46 15 -66t46 -20q53 0 57 65h138q-6 -171 -197 -171zM324 570q-34 0 -56 21.5t-22 53.5q0 33 22 55t56 22q32 0 55 -22.5t23 -54.5q0 -31 -23 -53
t-55 -22zM139 570q-33 0 -55.5 21.5t-22.5 53.5t22.5 54.5t55.5 22.5t55.5 -22.5t22.5 -54.5t-22.5 -53.5t-55.5 -21.5zM178 341v-21h113v27q-1 47 -14 66t-41 19q-58 0 -58 -91z" />
    <glyph glyph-name="igrave" unicode="&#xec;" horiz-adv-x="235" 
d="M42 0v523h148v-523h-148zM70 575l-89 157h157l42 -157h-110z" />
    <glyph glyph-name="iacute" unicode="&#xed;" horiz-adv-x="235" 
d="M61 575l42 157h157l-88 -157h-111zM42 0v523h148v-523h-148z" />
    <glyph glyph-name="icircumflex" unicode="&#xee;" horiz-adv-x="235" 
d="M-34 575l95 156h118l91 -156h-102l-50 56l-51 -56h-101zM42 0v523h148v-523h-148z" />
    <glyph glyph-name="idieresis" unicode="&#xef;" horiz-adv-x="232" 
d="M30 571q-32 0 -53.5 21.5t-21.5 52.5q0 30 22 51.5t53 21.5t52.5 -21.5t21.5 -51.5q0 -31 -21 -52.5t-53 -21.5zM202 571q-32 0 -53 21.5t-21 52.5q0 30 21.5 51.5t52.5 21.5t53 -21.5t22 -51.5q0 -31 -21.5 -52.5t-53.5 -21.5zM42 0v523h148v-523h-148z" />
    <glyph glyph-name="ntilde" unicode="&#xf1;" horiz-adv-x="477" 
d="M40 0v523h148v-67q37 77 126 77q58 0 90.5 -37.5t32.5 -110.5v-385h-148v359q0 57 -46 57q-55 0 -55 -64v-352h-148zM293 581q-26 0 -56 14t-39 14q-10 0 -17.5 -8t-8.5 -21h-81q4 71 28.5 106t65.5 35q25 0 56.5 -14.5t41.5 -14.5q21 0 26 30h81q-4 -71 -30.5 -106
t-66.5 -35z" />
    <glyph glyph-name="ograve" unicode="&#xf2;" horiz-adv-x="475" 
d="M237 -10q-92 0 -149.5 51.5t-57.5 146.5v145q0 96 57.5 148t150.5 52t150.5 -51t57.5 -147v-145q0 -96 -58 -148t-151 -52zM238 101q59 0 59 82v157q0 83 -59 83t-59 -82v-157q0 -83 59 -83zM187 575l-89 157h157l42 -157h-110z" />
    <glyph glyph-name="oacute" unicode="&#xf3;" horiz-adv-x="475" 
d="M178 575l42 157h157l-88 -157h-111zM237 -10q-92 0 -149.5 51.5t-57.5 146.5v145q0 96 57.5 148t150.5 52t150.5 -51t57.5 -147v-145q0 -96 -58 -148t-151 -52zM238 101q59 0 59 82v157q0 83 -59 83t-59 -82v-157q0 -83 59 -83z" />
    <glyph glyph-name="ocircumflex" unicode="&#xf4;" horiz-adv-x="475" 
d="M83 575l95 156h118l91 -156h-102l-50 56l-51 -56h-101zM237 -10q-92 0 -149.5 51.5t-57.5 146.5v145q0 96 57.5 148t150.5 52t150.5 -51t57.5 -147v-145q0 -96 -58 -148t-151 -52zM238 101q59 0 59 82v157q0 83 -59 83t-59 -82v-157q0 -83 59 -83z" />
    <glyph glyph-name="otilde" unicode="&#xf5;" horiz-adv-x="475" 
d="M237 -10q-92 0 -149.5 51.5t-57.5 146.5v145q0 96 57.5 148t150.5 52t150.5 -51t57.5 -147v-145q0 -96 -58 -148t-151 -52zM238 101q59 0 59 82v157q0 83 -59 83t-59 -82v-157q0 -83 59 -83zM288 581q-26 0 -56 14t-39 14q-10 0 -17.5 -8t-8.5 -21h-81q4 71 28.5 106
t65.5 35q25 0 56.5 -14.5t41.5 -14.5q21 0 26 30h81q-4 -71 -30.5 -106t-66.5 -35z" />
    <glyph glyph-name="odieresis" unicode="&#xf6;" horiz-adv-x="475" 
d="M143 570q-33 0 -55.5 21.5t-22.5 53.5t22.5 54.5t55.5 22.5t55.5 -22.5t22.5 -54.5t-22.5 -53.5t-55.5 -21.5zM328 570q-34 0 -56 21.5t-22 53.5q0 33 22 55t56 22q32 0 55 -22.5t23 -54.5q0 -31 -23 -53t-55 -22zM237 -10q-92 0 -149.5 51.5t-57.5 146.5v145
q0 96 57.5 148t150.5 52t150.5 -51t57.5 -147v-145q0 -96 -58 -148t-151 -52zM238 101q59 0 59 82v157q0 83 -59 83t-59 -82v-157q0 -83 59 -83z" />
    <glyph glyph-name="oslash" unicode="&#xf8;" horiz-adv-x="475" 
d="M66 -27l-45 30l44 61q-39 51 -39 130v133q0 98 58.5 152t153.5 54q80 0 133 -38l37 52l45 -31l-42 -59q38 -52 38 -128v-133q0 -98 -58.5 -152t-153.5 -54q-80 0 -133 37zM173 339v-123l122 172q-15 36 -57 36q-65 0 -65 -85zM238 100q65 0 65 86v119l-122 -171
q15 -34 57 -34z" />
    <glyph glyph-name="ugrave" unicode="&#xf9;" horiz-adv-x="477" 
d="M435 523v-523h-149v66q-35 -76 -121 -76q-59 0 -93.5 38t-34.5 110v385h149v-362q0 -57 45 -57q55 0 55 64v355h149zM187 575l-89 157h157l42 -157h-110z" />
    <glyph glyph-name="uacute" unicode="&#xfa;" horiz-adv-x="477" 
d="M177 575l42 157h157l-88 -157h-111zM435 523v-523h-149v66q-35 -76 -121 -76q-59 0 -93.5 38t-34.5 110v385h149v-362q0 -57 45 -57q55 0 55 64v355h149z" />
    <glyph glyph-name="ucircumflex" unicode="&#xfb;" horiz-adv-x="477" 
d="M83 575l95 156h118l91 -156h-102l-50 56l-51 -56h-101zM435 523v-523h-149v66q-35 -76 -121 -76q-59 0 -93.5 38t-34.5 110v385h149v-362q0 -57 45 -57q55 0 55 64v355h149z" />
    <glyph glyph-name="udieresis" unicode="&#xfc;" horiz-adv-x="477" 
d="M143 570q-33 0 -55.5 21.5t-22.5 53.5t22.5 54.5t55.5 22.5t55.5 -22.5t22.5 -54.5t-22.5 -53.5t-55.5 -21.5zM328 570q-34 0 -56 21.5t-22 53.5q0 33 22 55t56 22q32 0 55 -22.5t23 -54.5q0 -31 -23 -53t-55 -22zM435 523v-523h-149v66q-35 -76 -121 -76q-59 0 -93.5 38
t-34.5 110v385h149v-362q0 -57 45 -57q55 0 55 64v355h149z" />
    <glyph glyph-name="yacute" unicode="&#xfd;" horiz-adv-x="457" 
d="M170 523l70 -295l66 295h141l-200 -695h-145l61 209l-152 486h159zM177 575l42 157h157l-88 -157h-111z" />
    <glyph glyph-name="ydieresis" unicode="&#xff;" horiz-adv-x="457" 
d="M170 523l70 -295l66 295h141l-200 -695h-145l61 209l-152 486h159zM143 570q-33 0 -55.5 21.5t-22.5 53.5t22.5 54.5t55.5 22.5t55.5 -22.5t22.5 -54.5t-22.5 -53.5t-55.5 -21.5zM328 570q-34 0 -56 21.5t-22 53.5q0 33 22 55t56 22q32 0 55 -22.5t23 -54.5
q0 -31 -23 -53t-55 -22z" />
    <glyph glyph-name="Amacron" unicode="&#x100;" horiz-adv-x="542" 
d="M356 0l-24 143h-143l-23 -143h-152l141 715h230l141 -715h-170zM135 763v98h271v-98h-271zM260 573l-52 -315h105z" />
    <glyph glyph-name="amacron" unicode="&#x101;" horiz-adv-x="450" 
d="M162 -10q-61 0 -97.5 35.5t-36.5 107.5v21q0 82 49.5 118.5t147.5 36.5h45v53q0 34 -8.5 49.5t-33.5 15.5t-35 -14.5t-11 -44.5h-141q1 83 51 124t140 41q186 0 186 -166v-367h-145v52q-30 -62 -111 -62zM97 594v94h257v-94h-257zM218 91q52 0 52 59v71h-36
q-31 0 -45 -13.5t-14 -46.5v-17q0 -53 43 -53z" />
    <glyph glyph-name="Abreve" unicode="&#x102;" horiz-adv-x="542" 
d="M356 0l-24 143h-143l-23 -143h-152l141 715h230l141 -715h-170zM270 748q-62 0 -99 35t-40 101h97q3 -39 42 -39q41 0 44 39h98q-4 -65 -42.5 -100.5t-99.5 -35.5zM260 573l-52 -315h105z" />
    <glyph glyph-name="abreve" unicode="&#x103;" horiz-adv-x="450" 
d="M162 -10q-61 0 -97.5 35.5t-36.5 107.5v21q0 82 49.5 118.5t147.5 36.5h45v53q0 34 -8.5 49.5t-33.5 15.5t-35 -14.5t-11 -44.5h-141q1 83 51 124t140 41q186 0 186 -166v-367h-145v52q-30 -62 -111 -62zM225 574q-60 0 -96.5 38t-39.5 110h95q2 -45 41 -45t44 45h93
q-3 -72 -40.5 -110t-96.5 -38zM218 91q52 0 52 59v71h-36q-31 0 -45 -13.5t-14 -46.5v-17q0 -53 43 -53z" />
    <glyph glyph-name="Aogonek" unicode="&#x104;" horiz-adv-x="557" 
d="M464 -181q-44 0 -73 20.5t-29 56.5q0 61 73 104h-79l-24 143h-143l-23 -143h-152l141 715h230l141 -715h-4q-35 -33 -35 -65q0 -27 27 -27q9 0 23 4v-78q-28 -15 -73 -15zM260 573l-52 -315h105z" />
    <glyph glyph-name="aogonek" unicode="&#x105;" horiz-adv-x="450" 
d="M347 -181q-44 0 -73 20.5t-29 56.5q0 61 73 104h-45v52q-30 -62 -111 -62q-61 0 -97.5 35.5t-36.5 107.5v21q0 82 49.5 118.5t147.5 36.5h45v53q0 34 -8.5 49.5t-33.5 15.5t-35 -14.5t-11 -44.5h-141q1 83 51 124t140 41q186 0 186 -166v-367h-13q-35 -33 -35 -65
q0 -27 27 -27q9 0 23 4v-78q-28 -15 -73 -15zM218 91q52 0 52 59v71h-36q-31 0 -45 -13.5t-14 -46.5v-17q0 -53 43 -53z" />
    <glyph glyph-name="Cacute" unicode="&#x106;" horiz-adv-x="551" 
d="M291 -12q-121 0 -186.5 64t-65.5 186v238q0 119 68 184t179 65q228 0 235 -228h-166q-2 54 -18.5 75.5t-53.5 21.5q-74 0 -74 -114v-244q0 -61 18.5 -88.5t60.5 -27.5q75 0 76 102h161q-1 -118 -63 -176t-171 -58zM219 753l40 137h159l-83 -137h-116z" />
    <glyph glyph-name="cacute" unicode="&#x107;" horiz-adv-x="448" 
d="M234 -10q-94 0 -149 48.5t-55 148.5v145q0 99 55.5 150t144.5 51q189 0 193 -184h-139q-1 40 -13 56t-37 16q-55 0 -55 -80v-159q0 -44 14 -63t44 -19q54 0 54 80h134q-3 -190 -191 -190zM170 575l42 157h157l-88 -157h-111z" />
    <glyph glyph-name="Ccircumflex" unicode="&#x108;" horiz-adv-x="551" 
d="M291 -12q-121 0 -186.5 64t-65.5 186v238q0 119 68 184t179 65q228 0 235 -228h-166q-2 54 -18.5 75.5t-53.5 21.5q-74 0 -74 -114v-244q0 -61 18.5 -88.5t60.5 -27.5q75 0 76 102h161q-1 -118 -63 -176t-171 -58zM128 753l92 137h129l88 -137h-104l-51 47l-52 -47h-102z
" />
    <glyph glyph-name="ccircumflex" unicode="&#x109;" horiz-adv-x="448" 
d="M234 -10q-94 0 -149 48.5t-55 148.5v145q0 99 55.5 150t144.5 51q189 0 193 -184h-139q-1 40 -13 56t-37 16q-55 0 -55 -80v-159q0 -44 14 -63t44 -19q54 0 54 80h134q-3 -190 -191 -190zM75 575l95 156h118l91 -156h-102l-50 56l-51 -56h-101z" />
    <glyph glyph-name="Cdotaccent" unicode="&#x10a;" horiz-adv-x="551" 
d="M291 -12q-121 0 -186.5 64t-65.5 186v238q0 119 68 184t179 65q228 0 235 -228h-166q-2 54 -18.5 75.5t-53.5 21.5q-74 0 -74 -114v-244q0 -61 18.5 -88.5t60.5 -27.5q75 0 76 102h161q-1 -118 -63 -176t-171 -58zM283 752q-35 0 -58.5 22t-23.5 56q0 33 23.5 55t58.5 22
q34 0 58 -22t24 -55t-24 -55.5t-58 -22.5z" />
    <glyph glyph-name="cdotaccent" unicode="&#x10b;" horiz-adv-x="448" 
d="M234 -10q-94 0 -149 48.5t-55 148.5v145q0 99 55.5 150t144.5 51q189 0 193 -184h-139q-1 40 -13 56t-37 16q-55 0 -55 -80v-159q0 -44 14 -63t44 -19q54 0 54 80h134q-3 -190 -191 -190zM229 570q-35 0 -58.5 22.5t-23.5 55.5t23.5 55.5t58.5 22.5q34 0 58 -22.5
t24 -55.5t-24 -55.5t-58 -22.5z" />
    <glyph glyph-name="Ccaron" unicode="&#x10c;" horiz-adv-x="551" 
d="M291 -12q-121 0 -186.5 64t-65.5 186v238q0 119 68 184t179 65q228 0 235 -228h-166q-2 54 -18.5 75.5t-53.5 21.5q-74 0 -74 -114v-244q0 -61 18.5 -88.5t60.5 -27.5q75 0 76 102h161q-1 -118 -63 -176t-171 -58zM215 753l-87 137h104l51 -47l52 47h101l-91 -137h-130z
" />
    <glyph glyph-name="ccaron" unicode="&#x10d;" horiz-adv-x="448" 
d="M234 -10q-94 0 -149 48.5t-55 148.5v145q0 99 55.5 150t144.5 51q189 0 193 -184h-139q-1 40 -13 56t-37 16q-55 0 -55 -80v-159q0 -44 14 -63t44 -19q54 0 54 80h134q-3 -190 -191 -190zM166 575l-91 156h103l50 -55l52 55h99l-94 -156h-119z" />
    <glyph glyph-name="Dcaron" unicode="&#x10e;" horiz-adv-x="556" 
d="M187 753l-87 137h104l51 -47l52 47h101l-91 -137h-130zM50 715h215q133 0 199 -59t66 -189v-216q0 -128 -66 -189.5t-198 -61.5h-216v715zM259 587h-45v-459h46q56 0 78.5 27.5t22.5 96.5v212q0 69 -22.5 96t-79.5 27z" />
    <glyph glyph-name="dcaron" unicode="&#x10f;" horiz-adv-x="485" 
d="M471 584l6 160h114l-41 -160h-79zM447 743v-743h-149v65q-34 -75 -120 -75q-66 0 -106.5 48t-40.5 143v160q0 95 41.5 143.5t110.5 48.5q85 0 115 -69v279h149zM300 185v154q0 86 -62 86q-57 0 -57 -81v-165q0 -77 55 -77q64 0 64 83z" />
    <glyph glyph-name="Emacron" unicode="&#x112;" horiz-adv-x="454" 
d="M50 0v715h365v-128h-201v-154h160v-121h-160v-184h213v-128h-377zM98 763v98h271v-98h-271z" />
    <glyph glyph-name="emacron" unicode="&#x113;" horiz-adv-x="461" 
d="M237 -10q-98 0 -152.5 50.5t-54.5 148.5v143q0 97 56.5 149t146.5 52q93 0 146.5 -48t53.5 -150v-110h-255v-43q0 -46 15 -66t46 -20q53 0 57 65h138q-6 -171 -197 -171zM102 594v94h257v-94h-257zM178 341v-21h113v27q-1 47 -14 66t-41 19q-58 0 -58 -91z" />
    <glyph glyph-name="Ebreve" unicode="&#x114;" horiz-adv-x="454" 
d="M50 0v715h365v-128h-201v-154h160v-121h-160v-184h213v-128h-377zM233 748q-62 0 -99 35t-40 101h97q3 -39 42 -39q41 0 44 39h98q-4 -65 -42.5 -100.5t-99.5 -35.5z" />
    <glyph glyph-name="ebreve" unicode="&#x115;" horiz-adv-x="461" 
d="M237 -10q-98 0 -152.5 50.5t-54.5 148.5v143q0 97 56.5 149t146.5 52q93 0 146.5 -48t53.5 -150v-110h-255v-43q0 -46 15 -66t46 -20q53 0 57 65h138q-6 -171 -197 -171zM228 574q-60 0 -96.5 38t-39.5 110h95q2 -45 41 -45t44 45h93q-3 -72 -40.5 -110t-96.5 -38z
M178 341v-21h113v27q-1 47 -14 66t-41 19q-58 0 -58 -91z" />
    <glyph glyph-name="Edotaccent" unicode="&#x116;" horiz-adv-x="454" 
d="M234 752q-35 0 -58.5 22t-23.5 56q0 33 23.5 55t58.5 22q34 0 58 -22t24 -55t-24 -55.5t-58 -22.5zM50 0v715h365v-128h-201v-154h160v-121h-160v-184h213v-128h-377z" />
    <glyph glyph-name="edotaccent" unicode="&#x117;" horiz-adv-x="461" 
d="M237 -10q-98 0 -152.5 50.5t-54.5 148.5v143q0 97 56.5 149t146.5 52q93 0 146.5 -48t53.5 -150v-110h-255v-43q0 -46 15 -66t46 -20q53 0 57 65h138q-6 -171 -197 -171zM231 570q-35 0 -58.5 22.5t-23.5 55.5t23.5 55.5t58.5 22.5q34 0 58 -22.5t24 -55.5t-24 -55.5
t-58 -22.5zM178 341v-21h113v27q-1 47 -14 66t-41 19q-58 0 -58 -91z" />
    <glyph glyph-name="Eogonek" unicode="&#x118;" horiz-adv-x="454" 
d="M50 0v715h365v-128h-201v-154h160v-121h-160v-184h213v-128h-40q-35 -33 -35 -65q0 -27 27 -27q9 0 23 4v-78q-28 -15 -73 -15q-44 0 -73 20.5t-29 56.5q0 61 73 104h-250z" />
    <glyph glyph-name="eogonek" unicode="&#x119;" horiz-adv-x="471" 
d="M237 -10q-98 0 -152.5 50.5t-54.5 148.5v143q0 97 56.5 149t146.5 52q93 0 146.5 -48t53.5 -150v-110h-255v-43q0 -46 15 -66t46 -20q53 0 57 65h138q-4 -129 -117 -161h57q-35 -33 -35 -65q0 -27 27 -27q9 0 23 4v-78q-28 -15 -73 -15q-44 0 -73 20.5t-29 56.5
q0 56 59 96q-24 -2 -36 -2zM178 341v-21h113v27q-1 47 -14 66t-41 19q-58 0 -58 -91z" />
    <glyph glyph-name="Ecaron" unicode="&#x11a;" horiz-adv-x="454" 
d="M167 753l-87 137h104l51 -47l52 47h101l-91 -137h-130zM50 0v715h365v-128h-201v-154h160v-121h-160v-184h213v-128h-377z" />
    <glyph glyph-name="ecaron" unicode="&#x11b;" horiz-adv-x="461" 
d="M237 -10q-98 0 -152.5 50.5t-54.5 148.5v143q0 97 56.5 149t146.5 52q93 0 146.5 -48t53.5 -150v-110h-255v-43q0 -46 15 -66t46 -20q53 0 57 65h138q-6 -171 -197 -171zM169 575l-91 156h103l50 -55l52 55h99l-94 -156h-119zM178 341v-21h113v27q-1 47 -14 66t-41 19
q-58 0 -58 -91z" />
    <glyph glyph-name="Gcircumflex" unicode="&#x11c;" horiz-adv-x="577" 
d="M409 0v76q-41 -88 -152 -88q-100 0 -159 65t-59 183v241q0 120 69 184t184 64q108 0 171 -53.5t66 -171.5h-161q-3 52 -21.5 72.5t-55.5 20.5q-42 0 -62 -27t-20 -87v-246q0 -59 19.5 -87t65.5 -28q43 0 62 25t19 79v50h-75v113h236v-385h-127zM133 753l92 137h129
l88 -137h-104l-51 47l-52 -47h-102z" />
    <glyph glyph-name="gcircumflex" unicode="&#x11d;" horiz-adv-x="485" 
d="M83 575l95 156h118l91 -156h-102l-50 56l-51 -56h-101zM233 -183q-191 0 -201 152h144q5 -45 59 -45q63 0 63 72v82q-34 -73 -120 -73q-66 0 -106.5 47t-40.5 137v159q0 90 42 137.5t110 47.5q85 0 115 -69v59h149v-523q0 -183 -214 -183zM236 111q64 0 64 80v153
q0 81 -62 81q-57 0 -57 -76v-164q0 -74 55 -74z" />
    <glyph glyph-name="Gbreve" unicode="&#x11e;" horiz-adv-x="577" 
d="M409 0v76q-41 -88 -152 -88q-100 0 -159 65t-59 183v241q0 120 69 184t184 64q108 0 171 -53.5t66 -171.5h-161q-3 52 -21.5 72.5t-55.5 20.5q-42 0 -62 -27t-20 -87v-246q0 -59 19.5 -87t65.5 -28q43 0 62 25t19 79v50h-75v113h236v-385h-127zM287 748q-62 0 -99 35
t-40 101h97q3 -39 42 -39q41 0 44 39h98q-4 -65 -42.5 -100.5t-99.5 -35.5z" />
    <glyph glyph-name="gbreve" unicode="&#x11f;" horiz-adv-x="485" 
d="M233 -183q-191 0 -201 152h144q5 -45 59 -45q63 0 63 72v82q-34 -73 -120 -73q-66 0 -106.5 47t-40.5 137v159q0 90 42 137.5t110 47.5q85 0 115 -69v59h149v-523q0 -183 -214 -183zM236 111q64 0 64 80v153q0 81 -62 81q-57 0 -57 -76v-164q0 -74 55 -74zM235 574
q-60 0 -96.5 38t-39.5 110h95q2 -45 41 -45t44 45h93q-3 -72 -40.5 -110t-96.5 -38z" />
    <glyph glyph-name="Gdotaccent" unicode="&#x120;" horiz-adv-x="577" 
d="M409 0v76q-41 -88 -152 -88q-100 0 -159 65t-59 183v241q0 120 69 184t184 64q108 0 171 -53.5t66 -171.5h-161q-3 52 -21.5 72.5t-55.5 20.5q-42 0 -62 -27t-20 -87v-246q0 -59 19.5 -87t65.5 -28q43 0 62 25t19 79v50h-75v113h236v-385h-127zM288 752q-35 0 -58.5 22
t-23.5 56q0 33 23.5 55t58.5 22q34 0 58 -22t24 -55t-24 -55.5t-58 -22.5z" />
    <glyph glyph-name="gdotaccent" unicode="&#x121;" horiz-adv-x="485" 
d="M233 -183q-191 0 -201 152h144q5 -45 59 -45q63 0 63 72v82q-34 -73 -120 -73q-66 0 -106.5 47t-40.5 137v159q0 90 42 137.5t110 47.5q85 0 115 -69v59h149v-523q0 -183 -214 -183zM236 111q64 0 64 80v153q0 81 -62 81q-57 0 -57 -76v-164q0 -74 55 -74zM236 570
q-35 0 -58.5 22.5t-23.5 55.5t23.5 55.5t58.5 22.5q34 0 58 -22.5t24 -55.5t-24 -55.5t-58 -22.5z" />
    <glyph glyph-name="Gcommaaccent" unicode="&#x122;" horiz-adv-x="577" 
d="M409 0v76q-41 -88 -152 -88q-100 0 -159 65t-59 183v241q0 120 69 184t184 64q108 0 171 -53.5t66 -171.5h-161q-3 52 -21.5 72.5t-55.5 20.5q-42 0 -62 -27t-20 -87v-246q0 -59 19.5 -87t65.5 -28q43 0 62 25t19 79v50h-75v113h236v-385h-127zM290 -204l-89 21l31 149
l138 -6z" />
    <glyph glyph-name="gcommaaccent" unicode="&#x123;" horiz-adv-x="485" 
d="M308 574l-138 6l80 164l88 -22zM233 -183q-191 0 -201 152h144q5 -45 59 -45q63 0 63 72v82q-34 -73 -120 -73q-66 0 -106.5 47t-40.5 137v159q0 90 42 137.5t110 47.5q85 0 115 -69v59h149v-523q0 -183 -214 -183zM236 111q64 0 64 80v153q0 81 -62 81q-57 0 -57 -76
v-164q0 -74 55 -74z" />
    <glyph glyph-name="Hcircumflex" unicode="&#x124;" horiz-adv-x="572" 
d="M50 0v715h164v-284h141v284h164v-715h-164v299h-141v-299h-164zM131 753l92 137h129l88 -137h-104l-51 47l-52 -47h-102z" />
    <glyph glyph-name="hcircumflex" unicode="&#x125;" horiz-adv-x="477" 
d="M40 0v743h148v-287q37 77 126 77q58 0 90.5 -37.5t32.5 -110.5v-385h-148v359q0 57 -46 57q-55 0 -55 -64v-352h-148zM88 782l92 137h129l88 -137h-104l-51 47l-52 -47h-102z" />
    <glyph glyph-name="Itilde" unicode="&#x128;" horiz-adv-x="273" 
d="M53 0v715h165v-715h-165zM193 754q-27 0 -60 14.5t-42 14.5q-22 0 -26 -30h-84q4 70 31 104.5t68 34.5q26 0 60 -14t44 -14q21 0 26 29h84q-4 -70 -32 -104.5t-69 -34.5z" />
    <glyph glyph-name="itilde" unicode="&#x129;" horiz-adv-x="235" 
d="M42 0v523h148v-523h-148zM171 581q-26 0 -56 14t-39 14q-10 0 -17.5 -8t-8.5 -21h-81q4 71 28.5 106t65.5 35q25 0 56.5 -14.5t41.5 -14.5q21 0 26 30h81q-4 -71 -30.5 -106t-66.5 -35z" />
    <glyph glyph-name="Imacron" unicode="&#x12a;" horiz-adv-x="273" 
d="M53 0v715h165v-715h-165zM1 763v98h271v-98h-271z" />
    <glyph glyph-name="imacron" unicode="&#x12b;" horiz-adv-x="235" 
d="M15 594v94h205v-94h-205zM42 0v523h148v-523h-148z" />
    <glyph glyph-name="Ibreve" unicode="&#x12c;" horiz-adv-x="273" 
d="M53 0v715h165v-715h-165zM136 748q-62 0 -99 35t-40 101h97q3 -39 42 -39q41 0 44 39h98q-4 -65 -42.5 -100.5t-99.5 -35.5z" />
    <glyph glyph-name="ibreve" unicode="&#x12d;" horiz-adv-x="235" 
d="M42 0v523h148v-523h-148zM118 574q-60 0 -96.5 38t-39.5 110h95q2 -45 41 -45t44 45h93q-3 -72 -40.5 -110t-96.5 -38z" />
    <glyph glyph-name="Iogonek" unicode="&#x12e;" horiz-adv-x="279" 
d="M53 0v715h165v-715h-5q-35 -33 -35 -65q0 -27 27 -27q9 0 23 4v-78q-28 -15 -73 -15q-44 0 -73 20.5t-29 56.5q0 61 73 104h-73z" />
    <glyph glyph-name="iogonek" unicode="&#x12f;" horiz-adv-x="240" 
d="M42 0v523h148v-523h-3q-35 -33 -35 -65q0 -27 27 -27q9 0 23 4v-78q-28 -15 -73 -15q-44 0 -73 20.5t-29 56.5q0 61 73 104h-58zM116 567q-37 0 -60 22.5t-23 57.5q0 33 23.5 55.5t59.5 22.5q35 0 59 -22.5t24 -55.5q0 -34 -24 -57t-59 -23z" />
    <glyph glyph-name="Idotaccent" unicode="&#x130;" horiz-adv-x="273" 
d="M53 0v715h165v-715h-165zM137 752q-35 0 -58.5 22t-23.5 56q0 33 23.5 55t58.5 22q34 0 58 -22t24 -55t-24 -55.5t-58 -22.5z" />
    <glyph glyph-name="dotlessi" unicode="&#x131;" horiz-adv-x="232" 
d="M42 0v523h148v-523h-148z" />
    <glyph glyph-name="Jcircumflex" unicode="&#x134;" horiz-adv-x="483" 
d="M194 753l92 137h129l88 -137h-104l-51 47l-52 -47h-102zM231 -12q-109 0 -160.5 51t-51.5 153v30h157v-26q0 -41 11 -58t38 -17t37 18.5t10 64.5v511h165v-512q0 -215 -206 -215z" />
    <glyph glyph-name="jcircumflex" unicode="&#x135;" horiz-adv-x="235" 
d="M-18 -178v110q32 3 46.5 16.5t14.5 43.5v531h148v-537q0 -81 -48 -122t-161 -42zM-35 575l95 156h118l91 -156h-102l-50 56l-51 -56h-101z" />
    <glyph glyph-name="Kcommaaccent" unicode="&#x136;" horiz-adv-x="550" 
d="M536 0h-180l-142 319v-319h-164v715h164v-291l146 291h167l-169 -327zM273 -204l-89 21l31 149l138 -6z" />
    <glyph glyph-name="kcommaaccent" unicode="&#x137;" horiz-adv-x="456" 
d="M40 0v743h148v-435l104 215h148l-121 -238l129 -285h-160l-100 233v-233h-148zM226 -204l-89 21l31 149l138 -6z" />
    <glyph glyph-name="Lacute" unicode="&#x139;" horiz-adv-x="433" 
d="M69 753l40 137h159l-83 -137h-116zM50 0v715h164v-585h190v-130h-354z" />
    <glyph glyph-name="lacute" unicode="&#x13a;" horiz-adv-x="237" 
d="M57 782l40 137h159l-83 -137h-116zM43 0v743h148v-743h-148z" />
    <glyph glyph-name="Lcommaaccent" unicode="&#x13b;" horiz-adv-x="433" 
d="M217 -204l-89 21l31 149l138 -6zM50 0v715h164v-585h190v-130h-354z" />
    <glyph glyph-name="lcommaaccent" unicode="&#x13c;" horiz-adv-x="237" 
d="M111 -204l-89 21l31 149l138 -6zM43 0v743h148v-743h-148z" />
    <glyph glyph-name="Lcaron" unicode="&#x13d;" horiz-adv-x="446" 
d="M262 552l6 164h117l-42 -164h-81zM50 0v715h164v-585h190v-130h-354z" />
    <glyph glyph-name="lcaron" unicode="&#x13e;" horiz-adv-x="237" 
d="M218 584l6 160h114l-41 -160h-79zM43 0v743h148v-743h-148z" />
    <glyph glyph-name="Nacute" unicode="&#x143;" horiz-adv-x="573" 
d="M233 753l40 137h159l-83 -137h-116zM50 0v715h181l146 -398v398h145v-715h-159l-169 456v-456h-144z" />
    <glyph glyph-name="nacute" unicode="&#x144;" horiz-adv-x="477" 
d="M182 575l42 157h157l-88 -157h-111zM40 0v523h148v-67q37 77 126 77q58 0 90.5 -37.5t32.5 -110.5v-385h-148v359q0 57 -46 57q-55 0 -55 -64v-352h-148z" />
    <glyph glyph-name="Ncommaaccent" unicode="&#x145;" horiz-adv-x="573" 
d="M274 -204l-89 21l31 149l138 -6zM50 0v715h181l146 -398v398h145v-715h-159l-169 456v-456h-144z" />
    <glyph glyph-name="ncommaaccent" unicode="&#x146;" horiz-adv-x="477" 
d="M229 -204l-89 21l31 149l138 -6zM40 0v523h148v-67q37 77 126 77q58 0 90.5 -37.5t32.5 -110.5v-385h-148v359q0 57 -46 57q-55 0 -55 -64v-352h-148z" />
    <glyph glyph-name="Ncaron" unicode="&#x147;" horiz-adv-x="573" 
d="M230 753l-87 137h104l51 -47l52 47h101l-91 -137h-130zM50 0v715h181l146 -398v398h145v-715h-159l-169 456v-456h-144z" />
    <glyph glyph-name="ncaron" unicode="&#x148;" horiz-adv-x="477" 
d="M178 575l-91 156h103l50 -55l52 55h99l-94 -156h-119zM40 0v523h148v-67q37 77 126 77q58 0 90.5 -37.5t32.5 -110.5v-385h-148v359q0 57 -46 57q-55 0 -55 -64v-352h-148z" />
    <glyph glyph-name="Omacron" unicode="&#x14c;" horiz-adv-x="586" 
d="M156 763v98h271v-98h-271zM294 -12q-119 0 -186.5 64t-67.5 184v241q0 119 70 183.5t183 64.5q117 0 185 -62.5t68 -183.5v-239q0 -121 -67 -186.5t-185 -65.5zM293 120q84 0 84 116v242q0 116 -84 116q-83 0 -83 -116v-242q0 -60 20 -88t63 -28z" />
    <glyph glyph-name="omacron" unicode="&#x14d;" horiz-adv-x="475" 
d="M107 594v94h257v-94h-257zM237 -10q-92 0 -149.5 51.5t-57.5 146.5v145q0 96 57.5 148t150.5 52t150.5 -51t57.5 -147v-145q0 -96 -58 -148t-151 -52zM238 101q59 0 59 82v157q0 83 -59 83t-59 -82v-157q0 -83 59 -83z" />
    <glyph glyph-name="Obreve" unicode="&#x14e;" horiz-adv-x="586" 
d="M291 748q-62 0 -99 35t-40 101h97q3 -39 42 -39q41 0 44 39h98q-4 -65 -42.5 -100.5t-99.5 -35.5zM294 -12q-119 0 -186.5 64t-67.5 184v241q0 119 70 183.5t183 64.5q117 0 185 -62.5t68 -183.5v-239q0 -121 -67 -186.5t-185 -65.5zM293 120q84 0 84 116v242
q0 116 -84 116q-83 0 -83 -116v-242q0 -60 20 -88t63 -28z" />
    <glyph glyph-name="obreve" unicode="&#x14f;" horiz-adv-x="475" 
d="M237 -10q-92 0 -149.5 51.5t-57.5 146.5v145q0 96 57.5 148t150.5 52t150.5 -51t57.5 -147v-145q0 -96 -58 -148t-151 -52zM238 101q59 0 59 82v157q0 83 -59 83t-59 -82v-157q0 -83 59 -83zM235 574q-60 0 -96.5 38t-39.5 110h95q2 -45 41 -45t44 45h93
q-3 -72 -40.5 -110t-96.5 -38z" />
    <glyph glyph-name="Ohungarumlaut" unicode="&#x150;" horiz-adv-x="586" 
d="M152 753l27 137h133l-57 -137h-103zM315 753l27 137h134l-58 -137h-103zM294 -12q-119 0 -186.5 64t-67.5 184v241q0 119 70 183.5t183 64.5q117 0 185 -62.5t68 -183.5v-239q0 -121 -67 -186.5t-185 -65.5zM293 120q84 0 84 116v242q0 116 -84 116q-83 0 -83 -116v-242
q0 -60 20 -88t63 -28z" />
    <glyph glyph-name="ohungarumlaut" unicode="&#x151;" horiz-adv-x="475" 
d="M107 575l26 157h124l-57 -157h-93zM258 575l27 157h124l-58 -157h-93zM237 -10q-92 0 -149.5 51.5t-57.5 146.5v145q0 96 57.5 148t150.5 52t150.5 -51t57.5 -147v-145q0 -96 -58 -148t-151 -52zM238 101q59 0 59 82v157q0 83 -59 83t-59 -82v-157q0 -83 59 -83z" />
    <glyph glyph-name="OE" unicode="&#x152;" horiz-adv-x="724" 
d="M303 0q-271 0 -271 256v198q0 261 272 261h379v-128h-188v-154h149v-121h-149v-183h200v-129h-392zM308 128h24v459h-25q-57 0 -81 -30.5t-24 -102.5v-195q0 -72 24 -101.5t82 -29.5z" />
    <glyph glyph-name="oe" unicode="&#x153;" horiz-adv-x="730" 
d="M509 -10q-97 0 -140 54q-48 -54 -139 -54t-147.5 54t-56.5 150v133q0 97 57 151.5t148 54.5q95 0 142 -58q47 58 135 58q89 0 141 -48t52 -150v-104h-255v-48q0 -47 14.5 -66.5t45.5 -19.5q54 0 57 65h139q-7 -172 -193 -172zM238 101q61 0 61 85v151q0 86 -61 86
q-62 0 -62 -85v-151q0 -86 62 -86zM446 341v-24h113v30q0 47 -13 65.5t-41 18.5q-29 0 -44 -20.5t-15 -69.5z" />
    <glyph glyph-name="Racute" unicode="&#x154;" horiz-adv-x="541" 
d="M195 753l40 137h159l-83 -137h-116zM398 345q56 -12 79.5 -49.5t23.5 -104.5v-191h-164v198q0 49 -14 67t-57 18h-51v-283h-165v715h236q208 0 208 -176v-53q0 -62 -24 -94.5t-72 -46.5zM215 391h49q37 0 53.5 19.5t16.5 61.5v43q0 41 -17.5 58t-53.5 17h-48v-199z" />
    <glyph glyph-name="racute" unicode="&#x155;" horiz-adv-x="339" 
d="M128 575l42 157h157l-88 -157h-111zM40 0v523h148v-84q34 91 128 88v-149q-128 2 -128 -81v-297h-148z" />
    <glyph glyph-name="Rcommaaccent" unicode="&#x156;" horiz-adv-x="541" 
d="M271 -204l-89 21l31 149l138 -6zM398 345q56 -12 79.5 -49.5t23.5 -104.5v-191h-164v198q0 49 -14 67t-57 18h-51v-283h-165v715h236q208 0 208 -176v-53q0 -62 -24 -94.5t-72 -46.5zM215 391h49q37 0 53.5 19.5t16.5 61.5v43q0 41 -17.5 58t-53.5 17h-48v-199z" />
    <glyph glyph-name="rcommaaccent" unicode="&#x157;" horiz-adv-x="339" 
d="M108 -204l-89 21l31 149l138 -6zM40 0v523h148v-84q34 91 128 88v-149q-128 2 -128 -81v-297h-148z" />
    <glyph glyph-name="Rcaron" unicode="&#x158;" horiz-adv-x="541" 
d="M191 753l-87 137h104l51 -47l52 47h101l-91 -137h-130zM398 345q56 -12 79.5 -49.5t23.5 -104.5v-191h-164v198q0 49 -14 67t-57 18h-51v-283h-165v715h236q208 0 208 -176v-53q0 -62 -24 -94.5t-72 -46.5zM215 391h49q37 0 53.5 19.5t16.5 61.5v43q0 41 -17.5 58
t-53.5 17h-48v-199z" />
    <glyph glyph-name="rcaron" unicode="&#x159;" horiz-adv-x="339" 
d="M126 575l-91 156h103l50 -55l52 55h99l-94 -156h-119zM40 0v523h148v-84q34 91 128 88v-149q-128 2 -128 -81v-297h-148z" />
    <glyph glyph-name="Sacute" unicode="&#x15a;" horiz-adv-x="495" 
d="M255 -12q-225 0 -226 220h159q0 -54 15.5 -75t50.5 -21q59 0 59 71q0 23 -5 38.5t-21.5 29t-29.5 21t-47 23.5q-91 42 -131.5 93t-40.5 139q0 93 56.5 145.5t156.5 52.5q211 0 212 -204h-154q-1 45 -16 62t-43 17q-52 0 -52 -60q0 -37 18.5 -56.5t71.5 -45.5
q38 -17 60 -29t50 -32.5t42 -42.5t24.5 -56.5t10.5 -77.5q0 -102 -57.5 -157t-162.5 -55zM181 753l40 137h159l-83 -137h-116z" />
    <glyph glyph-name="sacute" unicode="&#x15b;" horiz-adv-x="414" 
d="M213 -10q-92 0 -140.5 42.5t-48.5 125.5h138q1 -36 12.5 -51t37.5 -15q42 0 42 47q0 17 -12.5 30t-25 18.5t-49.5 20.5q-73 29 -106 66.5t-33 105.5q0 73 49.5 113t129.5 40q177 0 181 -158h-137q0 56 -45 56q-39 0 -39 -40q0 -16 9.5 -26.5t22 -17t46.5 -21.5
q79 -31 116 -67t37 -104q0 -82 -47.5 -123.5t-137.5 -41.5zM147 575l42 157h157l-88 -157h-111z" />
    <glyph glyph-name="Scircumflex" unicode="&#x15c;" horiz-adv-x="495" 
d="M91 753l92 137h129l88 -137h-104l-51 47l-52 -47h-102zM255 -12q-225 0 -226 220h159q0 -54 15.5 -75t50.5 -21q59 0 59 71q0 23 -5 38.5t-21.5 29t-29.5 21t-47 23.5q-91 42 -131.5 93t-40.5 139q0 93 56.5 145.5t156.5 52.5q211 0 212 -204h-154q-1 45 -16 62t-43 17
q-52 0 -52 -60q0 -37 18.5 -56.5t71.5 -45.5q38 -17 60 -29t50 -32.5t42 -42.5t24.5 -56.5t10.5 -77.5q0 -102 -57.5 -157t-162.5 -55z" />
    <glyph glyph-name="scircumflex" unicode="&#x15d;" horiz-adv-x="414" 
d="M213 -10q-92 0 -140.5 42.5t-48.5 125.5h138q1 -36 12.5 -51t37.5 -15q42 0 42 47q0 17 -12.5 30t-25 18.5t-49.5 20.5q-73 29 -106 66.5t-33 105.5q0 73 49.5 113t129.5 40q177 0 181 -158h-137q0 56 -45 56q-39 0 -39 -40q0 -16 9.5 -26.5t22 -17t46.5 -21.5
q79 -31 116 -67t37 -104q0 -82 -47.5 -123.5t-137.5 -41.5zM52 575l95 156h118l91 -156h-102l-50 56l-51 -56h-101z" />
    <glyph glyph-name="Scedilla" unicode="&#x15e;" horiz-adv-x="495" 
d="M234 -211q-103 0 -114 87h77q4 -25 31 -25q28 0 28 28q0 29 -30 29q-16 0 -29 -11l-35 34l38 61q-170 24 -171 216h159q0 -54 15.5 -75t50.5 -21q59 0 59 71q0 23 -5 38.5t-21.5 29t-29.5 21t-47 23.5q-91 42 -131.5 93t-40.5 139q0 93 56.5 145.5t156.5 52.5
q211 0 212 -204h-154q-1 45 -16 62t-43 17q-52 0 -52 -60q0 -37 18.5 -56.5t71.5 -45.5q38 -17 60 -29t50 -32.5t42 -42.5t24.5 -56.5t10.5 -77.5q0 -101 -55.5 -155.5t-157.5 -56.5l-19 -29q42 5 70 -15.5t28 -64.5q0 -43 -29 -66.5t-78 -23.5z" />
    <glyph glyph-name="scedilla" unicode="&#x15f;" horiz-adv-x="414" 
d="M196 -211q-103 0 -114 87h77q4 -25 31 -25q28 0 28 28q0 29 -30 29q-16 0 -29 -11l-35 34l39 63q-139 20 -139 164h138q1 -36 12.5 -51t37.5 -15q42 0 42 47q0 17 -12.5 30t-25 18.5t-49.5 20.5q-73 29 -106 66.5t-33 105.5q0 73 49.5 113t129.5 40q177 0 181 -158h-137
q0 56 -45 56q-39 0 -39 -40q0 -16 9.5 -26.5t22 -17t46.5 -21.5q79 -31 116 -67t37 -104q0 -79 -44.5 -120.5t-128.5 -44.5l-20 -31q42 5 70 -15.5t28 -64.5q0 -43 -29 -66.5t-78 -23.5z" />
    <glyph glyph-name="Scaron" unicode="&#x160;" horiz-adv-x="495" 
d="M178 753l-87 137h104l51 -47l52 47h101l-91 -137h-130zM255 -12q-225 0 -226 220h159q0 -54 15.5 -75t50.5 -21q59 0 59 71q0 23 -5 38.5t-21.5 29t-29.5 21t-47 23.5q-91 42 -131.5 93t-40.5 139q0 93 56.5 145.5t156.5 52.5q211 0 212 -204h-154q-1 45 -16 62t-43 17
q-52 0 -52 -60q0 -37 18.5 -56.5t71.5 -45.5q38 -17 60 -29t50 -32.5t42 -42.5t24.5 -56.5t10.5 -77.5q0 -102 -57.5 -157t-162.5 -55z" />
    <glyph glyph-name="scaron" unicode="&#x161;" horiz-adv-x="414" 
d="M213 -10q-92 0 -140.5 42.5t-48.5 125.5h138q1 -36 12.5 -51t37.5 -15q42 0 42 47q0 17 -12.5 30t-25 18.5t-49.5 20.5q-73 29 -106 66.5t-33 105.5q0 73 49.5 113t129.5 40q177 0 181 -158h-137q0 56 -45 56q-39 0 -39 -40q0 -16 9.5 -26.5t22 -17t46.5 -21.5
q79 -31 116 -67t37 -104q0 -82 -47.5 -123.5t-137.5 -41.5zM141 575l-91 156h103l50 -55l52 55h99l-94 -156h-119z" />
    <glyph glyph-name="Tcommaaccent" unicode="&#x162;" horiz-adv-x="472" 
d="M226 -204l-89 21l31 149l138 -6zM153 0v587h-131v128h428v-128h-132v-587h-165z" />
    <glyph glyph-name="tcommaaccent" unicode="&#x163;" horiz-adv-x="319" 
d="M171 -204l-89 21l31 149l138 -6zM65 626h149v-103h79v-104h-79v-261q0 -46 43 -46q26 0 36 5v-112q-25 -10 -68 -10q-84 0 -122 36t-38 114v274h-49v104h49v103z" />
    <glyph glyph-name="Tcaron" unicode="&#x164;" horiz-adv-x="472" 
d="M166 753l-87 137h104l51 -47l52 47h101l-91 -137h-130zM153 0v587h-131v128h428v-128h-132v-587h-165z" />
    <glyph glyph-name="tcaron" unicode="&#x165;" horiz-adv-x="319" 
d="M245 584l6 160h114l-41 -160h-79zM65 626h149v-103h79v-104h-79v-261q0 -46 43 -46q26 0 36 5v-112q-25 -10 -68 -10q-84 0 -122 36t-38 114v274h-49v104h49v103z" />
    <glyph glyph-name="Utilde" unicode="&#x168;" horiz-adv-x="562" 
d="M353 715h166v-500q0 -115 -61.5 -171t-175.5 -56t-174.5 56.5t-60.5 169.5v501h165v-497q0 -52 16 -74.5t55 -22.5q37 0 53.5 23t16.5 76v495zM335 754q-27 0 -60 14.5t-42 14.5q-22 0 -26 -30h-84q4 70 31 104.5t68 34.5q26 0 60 -14t44 -14q21 0 26 29h84
q-4 -70 -32 -104.5t-69 -34.5z" />
    <glyph glyph-name="utilde" unicode="&#x169;" horiz-adv-x="477" 
d="M435 523v-523h-149v66q-35 -76 -121 -76q-59 0 -93.5 38t-34.5 110v385h149v-362q0 -57 45 -57q55 0 55 64v355h149zM288 581q-26 0 -56 14t-39 14q-10 0 -17.5 -8t-8.5 -21h-81q4 71 28.5 106t65.5 35q25 0 56.5 -14.5t41.5 -14.5q21 0 26 30h81q-4 -71 -30.5 -106
t-66.5 -35z" />
    <glyph glyph-name="Umacron" unicode="&#x16a;" horiz-adv-x="562" 
d="M353 715h166v-500q0 -115 -61.5 -171t-175.5 -56t-174.5 56.5t-60.5 169.5v501h165v-497q0 -52 16 -74.5t55 -22.5q37 0 53.5 23t16.5 76v495zM144 763v98h271v-98h-271z" />
    <glyph glyph-name="umacron" unicode="&#x16b;" horiz-adv-x="477" 
d="M435 523v-523h-149v66q-35 -76 -121 -76q-59 0 -93.5 38t-34.5 110v385h149v-362q0 -57 45 -57q55 0 55 64v355h149zM107 594v94h257v-94h-257z" />
    <glyph glyph-name="Ubreve" unicode="&#x16c;" horiz-adv-x="562" 
d="M353 715h166v-500q0 -115 -61.5 -171t-175.5 -56t-174.5 56.5t-60.5 169.5v501h165v-497q0 -52 16 -74.5t55 -22.5q37 0 53.5 23t16.5 76v495zM279 748q-62 0 -99 35t-40 101h97q3 -39 42 -39q41 0 44 39h98q-4 -65 -42.5 -100.5t-99.5 -35.5z" />
    <glyph glyph-name="ubreve" unicode="&#x16d;" horiz-adv-x="477" 
d="M435 523v-523h-149v66q-35 -76 -121 -76q-59 0 -93.5 38t-34.5 110v385h149v-362q0 -57 45 -57q55 0 55 64v355h149zM235 574q-60 0 -96.5 38t-39.5 110h95q2 -45 41 -45t44 45h93q-3 -72 -40.5 -110t-96.5 -38z" />
    <glyph glyph-name="Uring" unicode="&#x16e;" horiz-adv-x="562" 
d="M353 715h166v-500q0 -115 -61.5 -171t-175.5 -56t-174.5 56.5t-60.5 169.5v501h165v-497q0 -52 16 -74.5t55 -22.5q37 0 53.5 23t16.5 76v495zM279 787q17 0 27.5 12t10.5 31q0 18 -11 30t-27 12q-17 0 -27.5 -12t-10.5 -30q0 -19 10.5 -31t27.5 -12zM279 729
q-44 0 -74.5 29.5t-30.5 71.5t30.5 71.5t74.5 29.5t74.5 -29.5t30.5 -71.5t-30.5 -71.5t-74.5 -29.5z" />
    <glyph glyph-name="uring" unicode="&#x16f;" horiz-adv-x="477" 
d="M235 622q16 0 27 12t11 30t-11 30t-27 12t-27 -12t-11 -30t11 -30t27 -12zM235 564q-43 0 -73.5 29.5t-30.5 70.5t30.5 71t73.5 30t73.5 -30t30.5 -71t-30.5 -70.5t-73.5 -29.5zM435 523v-523h-149v66q-35 -76 -121 -76q-59 0 -93.5 38t-34.5 110v385h149v-362
q0 -57 45 -57q55 0 55 64v355h149z" />
    <glyph glyph-name="Uhungarumlaut" unicode="&#x170;" horiz-adv-x="562" 
d="M140 753l27 137h133l-57 -137h-103zM303 753l27 137h134l-58 -137h-103zM353 715h166v-500q0 -115 -61.5 -171t-175.5 -56t-174.5 56.5t-60.5 169.5v501h165v-497q0 -52 16 -74.5t55 -22.5q37 0 53.5 23t16.5 76v495z" />
    <glyph glyph-name="uhungarumlaut" unicode="&#x171;" horiz-adv-x="477" 
d="M435 523v-523h-149v66q-35 -76 -121 -76q-59 0 -93.5 38t-34.5 110v385h149v-362q0 -57 45 -57q55 0 55 64v355h149zM107 575l26 157h124l-57 -157h-93zM258 575l27 157h124l-58 -157h-93z" />
    <glyph glyph-name="Uogonek" unicode="&#x172;" horiz-adv-x="582" 
d="M353 715h166v-500q0 -174 -143 -215h9q-35 -33 -35 -65q0 -27 27 -27q9 0 23 4v-78q-28 -15 -73 -15q-44 0 -73 20.5t-29 56.5q0 55 54 92q-112 1 -172 57.5t-60 168.5v501h165v-497q0 -52 16 -74.5t55 -22.5q37 0 53.5 23t16.5 76v495z" />
    <glyph glyph-name="uogonek" unicode="&#x173;" horiz-adv-x="486" 
d="M435 523v-523h-2q-35 -33 -35 -65q0 -27 27 -27q9 0 23 4v-78q-28 -15 -73 -15q-44 0 -73 20.5t-29 56.5q0 61 73 104h-60v66q-35 -76 -121 -76q-59 0 -93.5 38t-34.5 110v385h149v-362q0 -57 45 -57q55 0 55 64v355h149z" />
    <glyph glyph-name="Wcircumflex" unicode="&#x174;" horiz-adv-x="749" 
d="M221 753l92 137h129l88 -137h-104l-51 47l-52 -47h-102zM132 0l-116 715h165l58 -447l75 447h122l79 -450l60 450h152l-116 -715h-158l-77 419l-78 -419h-166z" />
    <glyph glyph-name="wcircumflex" unicode="&#x175;" horiz-adv-x="660" 
d="M176 575l95 156h118l91 -156h-102l-50 56l-51 -56h-101zM120 0l-108 523h152l48 -310l60 310h127l55 -310l53 310h137l-115 -523h-146l-55 307l-60 -307h-148z" />
    <glyph glyph-name="Ycircumflex" unicode="&#x176;" horiz-adv-x="516" 
d="M177 0v303l-167 412h177l82 -251l81 251h154l-161 -413v-302h-166zM109 753l92 137h129l88 -137h-104l-51 47l-52 -47h-102z" />
    <glyph glyph-name="ycircumflex" unicode="&#x177;" horiz-adv-x="457" 
d="M170 523l70 -295l66 295h141l-200 -695h-145l61 209l-152 486h159zM81 575l95 156h118l91 -156h-102l-50 56l-51 -56h-101z" />
    <glyph glyph-name="Ydieresis" unicode="&#x178;" horiz-adv-x="516" 
d="M177 0v303l-167 412h177l82 -251l81 251h154l-161 -413v-302h-166zM170 753q-31 0 -52.5 21t-21.5 52t21.5 52t52.5 21q32 0 54 -21t22 -52t-22 -52t-54 -21zM357 753q-31 0 -52.5 21t-21.5 52t21.5 52t52.5 21q32 0 54 -21t22 -52t-22 -52t-54 -21z" />
    <glyph glyph-name="Zacute" unicode="&#x179;" horiz-adv-x="466" 
d="M175 753l40 137h159l-83 -137h-116zM13 0v19l220 571h-191v125h404v-18l-221 -570h209v-127h-421z" />
    <glyph glyph-name="zacute" unicode="&#x17a;" horiz-adv-x="393" 
d="M146 575l42 157h157l-88 -157h-111zM15 0v15l168 394h-149v114h345v-16l-174 -393h161v-114h-351z" />
    <glyph glyph-name="Zdotaccent" unicode="&#x17b;" horiz-adv-x="466" 
d="M13 0v19l220 571h-191v125h404v-18l-221 -570h209v-127h-421zM240 752q-35 0 -58.5 22t-23.5 56q0 33 23.5 55t58.5 22q34 0 58 -22t24 -55t-24 -55.5t-58 -22.5z" />
    <glyph glyph-name="zdotaccent" unicode="&#x17c;" horiz-adv-x="393" 
d="M15 0v15l168 394h-149v114h345v-16l-174 -393h161v-114h-351zM205 570q-35 0 -58.5 22.5t-23.5 55.5t23.5 55.5t58.5 22.5q34 0 58 -22.5t24 -55.5t-24 -55.5t-58 -22.5z" />
    <glyph glyph-name="Zcaron" unicode="&#x17d;" horiz-adv-x="466" 
d="M172 753l-87 137h104l51 -47l52 47h101l-91 -137h-130zM13 0v19l220 571h-191v125h404v-18l-221 -570h209v-127h-421z" />
    <glyph glyph-name="zcaron" unicode="&#x17e;" horiz-adv-x="393" 
d="M143 575l-91 156h103l50 -55l52 55h99l-94 -156h-119zM15 0v15l168 394h-149v114h345v-16l-174 -393h161v-114h-351z" />
    <glyph glyph-name="Aringacute" unicode="&#x1fa;" horiz-adv-x="542" 
d="M356 0l-24 143h-143l-23 -143h-152l141 715h230l141 -715h-170zM272 734q-44 0 -74.5 29.5t-30.5 71.5t30.5 71.5t74.5 29.5t74.5 -29.5t30.5 -71.5t-30.5 -71.5t-74.5 -29.5zM210 949l40 137h159l-83 -137h-116zM260 573l-52 -315h105zM272 792q17 0 27.5 12t10.5 31
q0 18 -11 30t-27 12q-17 0 -27.5 -12t-10.5 -30q0 -19 10.5 -31t27.5 -12z" />
    <glyph glyph-name="aringacute" unicode="&#x1fb;" horiz-adv-x="450" 
d="M162 -10q-61 0 -97.5 35.5t-36.5 107.5v21q0 82 49.5 118.5t147.5 36.5h45v53q0 34 -8.5 49.5t-33.5 15.5t-35 -14.5t-11 -44.5h-141q1 83 51 124t140 41q186 0 186 -166v-367h-145v52q-30 -62 -111 -62zM226 570q-43 0 -73.5 29.5t-30.5 70.5t30.5 71t73.5 30t73.5 -30
t30.5 -71t-30.5 -70.5t-73.5 -29.5zM167 782l40 137h159l-83 -137h-116zM218 91q52 0 52 59v71h-36q-31 0 -45 -13.5t-14 -46.5v-17q0 -53 43 -53zM226 628q16 0 27 12t11 30t-11 30t-27 12t-27 -12t-11 -30t11 -30t27 -12z" />
    <glyph glyph-name="AEacute" unicode="&#x1fc;" horiz-adv-x="723" 
d="M13 0l189 715h481v-128h-192v-154h152v-121h-152v-183h202v-129h-366v148h-126l-36 -148h-152zM366 753l40 137h159l-83 -137h-116zM309 587l-80 -325h98v325h-18z" />
    <glyph glyph-name="aeacute" unicode="&#x1fd;" horiz-adv-x="695" 
d="M474 -10q-104 0 -148 67q-46 -67 -143 -67q-75 0 -115 37t-40 109v22q0 154 194 154h48v53q0 34 -9 48.5t-34 14.5q-24 0 -34 -13.5t-12 -46.5h-141q3 82 51.5 123.5t133.5 41.5q92 0 126 -46q46 46 124 46q89 0 141.5 -49t52.5 -152v-100h-256v-46q0 -47 15 -68t48 -21
q27 0 40 15.5t15 49.5h138q-5 -88 -53 -130t-142 -42zM296 575l42 157h157l-88 -157h-111zM413 336v-24h114v38q-1 45 -14 63t-40 18q-60 0 -60 -95zM215 92q55 0 55 60v79h-36q-31 0 -45 -13.5t-14 -44.5v-29q0 -52 40 -52z" />
    <glyph glyph-name="Oslashacute" unicode="&#x1fe;" horiz-adv-x="586" 
d="M72 -24l-47 31l51 77q-44 62 -44 159v227q0 121 72.5 188t188.5 67q107 0 175 -53l39 59l48 -32l-46 -69q45 -62 45 -158v-224q0 -124 -71 -192t-192 -68q-109 0 -175 54zM293 120q45 0 69.5 32t24.5 93v202l-180 -268q21 -59 86 -59zM199 473v-205l179 269
q-21 58 -85 58q-94 0 -94 -122zM227 753l40 137h159l-83 -137h-116z" />
    <glyph glyph-name="oslashacute" unicode="&#x1ff;" horiz-adv-x="475" 
d="M66 -27l-45 30l44 61q-39 51 -39 130v133q0 98 58.5 152t153.5 54q80 0 133 -38l37 52l45 -31l-42 -59q38 -52 38 -128v-133q0 -98 -58.5 -152t-153.5 -54q-80 0 -133 37zM178 575l42 157h157l-88 -157h-111zM173 339v-123l122 172q-15 36 -57 36q-65 0 -65 -85zM238 100
q65 0 65 86v119l-122 -171q15 -34 57 -34z" />
    <glyph glyph-name="Scommaaccent" unicode="&#x218;" horiz-adv-x="495" 
d="M234 -204l-89 21l31 149l138 -6zM255 -12q-225 0 -226 220h159q0 -54 15.5 -75t50.5 -21q59 0 59 71q0 23 -5 38.5t-21.5 29t-29.5 21t-47 23.5q-91 42 -131.5 93t-40.5 139q0 93 56.5 145.5t156.5 52.5q211 0 212 -204h-154q-1 45 -16 62t-43 17q-52 0 -52 -60
q0 -37 18.5 -56.5t71.5 -45.5q38 -17 60 -29t50 -32.5t42 -42.5t24.5 -56.5t10.5 -77.5q0 -102 -57.5 -157t-162.5 -55z" />
    <glyph glyph-name="scommaaccent" unicode="&#x219;" horiz-adv-x="413" 
d="M213 -10q-92 0 -140.5 42.5t-48.5 125.5h138q1 -36 12.5 -51t37.5 -15q42 0 42 47q0 17 -12.5 30t-25 18.5t-49.5 20.5q-73 29 -106 66.5t-33 105.5q0 73 49.5 113t129.5 40q177 0 181 -158h-137q0 56 -45 56q-39 0 -39 -40q0 -16 9.5 -26.5t22 -17t46.5 -21.5
q79 -31 116 -67t37 -104q0 -82 -47.5 -123.5t-137.5 -41.5zM194 -204l-89 21l31 149l138 -6z" />
    <glyph glyph-name="dotlessj" unicode="&#x237;" horiz-adv-x="235" 
d="M-18 -178v110q32 3 46.5 16.5t14.5 43.5v531h148v-537q0 -81 -48 -122t-161 -42z" />
    <glyph glyph-name="circumflex" unicode="&#x2c6;" 
d="M52 575l95 156h118l91 -156h-102l-50 56l-51 -56h-101z" />
    <glyph glyph-name="caron" unicode="&#x2c7;" 
d="M143 575l-91 156h103l50 -55l52 55h99l-94 -156h-119z" />
    <glyph glyph-name="breve" unicode="&#x2d8;" 
d="M204 574q-60 0 -96.5 38t-39.5 110h95q2 -45 41 -45t44 45h93q-3 -72 -40.5 -110t-96.5 -38z" />
    <glyph glyph-name="dotaccent" unicode="&#x2d9;" 
d="M205 570q-35 0 -58.5 22.5t-23.5 55.5t23.5 55.5t58.5 22.5q34 0 58 -22.5t24 -55.5t-24 -55.5t-58 -22.5z" />
    <glyph glyph-name="ring" unicode="&#x2da;" 
d="M205 631q16 0 27 12t11 30t-11 30t-27 12t-27 -12t-11 -30t11 -30t27 -12zM205 573q-43 0 -73.5 29.5t-30.5 70.5t30.5 71t73.5 30t73.5 -30t30.5 -71t-30.5 -70.5t-73.5 -29.5z" />
    <glyph glyph-name="ogonek" unicode="&#x2db;" 
d="M212 -181q-44 0 -73 20.5t-29 56.5q0 61 73 104h87q-35 -33 -35 -65q0 -27 27 -27q9 0 23 4v-78q-28 -15 -73 -15z" />
    <glyph glyph-name="tilde" unicode="&#x2dc;" 
d="M258 581q-26 0 -56 14t-39 14q-10 0 -17.5 -8t-8.5 -21h-81q4 71 28.5 106t65.5 35q25 0 56.5 -14.5t41.5 -14.5q21 0 26 30h81q-4 -71 -30.5 -106t-66.5 -35z" />
    <glyph glyph-name="hungarumlaut" unicode="&#x2dd;" 
d="M77 575l26 157h124l-57 -157h-93zM228 575l27 157h124l-58 -157h-93z" />
    <glyph glyph-name="Wgrave" unicode="&#x1e80;" horiz-adv-x="749" 
d="M323 753l-82 137h160l38 -137h-116zM132 0l-116 715h165l58 -447l75 447h122l79 -450l60 450h152l-116 -715h-158l-77 419l-78 -419h-166z" />
    <glyph glyph-name="wgrave" unicode="&#x1e81;" horiz-adv-x="660" 
d="M120 0l-108 523h152l48 -310l60 310h127l55 -310l53 310h137l-115 -523h-146l-55 307l-60 -307h-148zM284 575l-89 157h157l42 -157h-110z" />
    <glyph glyph-name="Wacute" unicode="&#x1e82;" horiz-adv-x="749" 
d="M316 753l40 137h159l-83 -137h-116zM132 0l-116 715h165l58 -447l75 447h122l79 -450l60 450h152l-116 -715h-158l-77 419l-78 -419h-166z" />
    <glyph glyph-name="wacute" unicode="&#x1e83;" horiz-adv-x="660" 
d="M277 575l42 157h157l-88 -157h-111zM120 0l-108 523h152l48 -310l60 310h127l55 -310l53 310h137l-115 -523h-146l-55 307l-60 -307h-148z" />
    <glyph glyph-name="Wdieresis" unicode="&#x1e84;" horiz-adv-x="749" 
d="M283 753q-31 0 -52.5 21t-21.5 52t21.5 52t52.5 21q32 0 54 -21t22 -52t-22 -52t-54 -21zM470 753q-31 0 -52.5 21t-21.5 52t21.5 52t52.5 21q32 0 54 -21t22 -52t-22 -52t-54 -21zM132 0l-116 715h165l58 -447l75 447h122l79 -450l60 450h152l-116 -715h-158l-77 419
l-78 -419h-166z" />
    <glyph glyph-name="wdieresis" unicode="&#x1e85;" horiz-adv-x="660" 
d="M240 570q-33 0 -55.5 21.5t-22.5 53.5t22.5 54.5t55.5 22.5t55.5 -22.5t22.5 -54.5t-22.5 -53.5t-55.5 -21.5zM425 570q-34 0 -56 21.5t-22 53.5q0 33 22.5 55t55.5 22q32 0 55 -22.5t23 -54.5q0 -31 -23 -53t-55 -22zM120 0l-108 523h152l48 -310l60 310h127l55 -310
l53 310h137l-115 -523h-146l-55 307l-60 -307h-148z" />
    <glyph glyph-name="Ygrave" unicode="&#x1ef2;" horiz-adv-x="516" 
d="M177 0v303l-167 412h177l82 -251l81 251h154l-161 -413v-302h-166zM214 753l-82 137h160l38 -137h-116z" />
    <glyph glyph-name="ygrave" unicode="&#x1ef3;" horiz-adv-x="457" 
d="M170 523l70 -295l66 295h141l-200 -695h-145l61 209l-152 486h159zM187 575l-89 157h157l42 -157h-110z" />
    <glyph glyph-name="thinspace" unicode="&#x2009;" horiz-adv-x="79" 
 />
    <glyph glyph-name="endash" unicode="&#x2013;" horiz-adv-x="532" 
d="M43 242v92h445v-92h-445z" />
    <glyph glyph-name="emdash" unicode="&#x2014;" horiz-adv-x="925" 
d="M43 242v92h839v-92h-839z" />
    <glyph glyph-name="quoteleft" unicode="&#x2018;" horiz-adv-x="250" 
d="M132 725l87 -29l-58 -225l-135 39z" />
    <glyph glyph-name="quoteright" unicode="&#x2019;" horiz-adv-x="250" 
d="M118 471l-86 30l57 224l136 -39z" />
    <glyph glyph-name="quotedblleft" unicode="&#x201c;" horiz-adv-x="432" 
d="M132 725l87 -29l-58 -225l-135 39zM314 725l86 -29l-57 -225l-136 39z" />
    <glyph glyph-name="quotedblright" unicode="&#x201d;" horiz-adv-x="432" 
d="M118 471l-86 30l57 224l136 -39zM300 471l-87 30l58 224l135 -39z" />
    <glyph glyph-name="ellipsis" unicode="&#x2026;" horiz-adv-x="708" 
d="M120 -8q-36 0 -60.5 24t-24.5 59t24.5 59.5t60.5 24.5q37 0 62 -24.5t25 -59.5t-25 -59t-62 -24zM353 -8q-36 0 -60.5 24t-24.5 59t24.5 59.5t60.5 24.5q37 0 62 -24.5t25 -59.5t-25 -59t-62 -24zM586 -8q-37 0 -61.5 24t-24.5 59t24.5 59.5t61.5 24.5t62 -24.5t25 -59.5
t-25 -59t-62 -24z" />
    <glyph glyph-name="fraction" unicode="&#x2044;" horiz-adv-x="177" 
d="M-202 0l495 715h85l-494 -715h-86z" />
    <glyph glyph-name="onethird" unicode="&#x2153;" horiz-adv-x="731" 
d="M562 -6q-74 0 -107.5 31t-34.5 95h102q1 -44 33 -44q31 0 31 38v14q0 22 -10 31.5t-34 9.5h-20v68h20q44 0 44 40v7q0 37 -28 37q-30 0 -31 -43h-102q5 125 137 125q63 0 98 -26.5t35 -78.5v-10q0 -62 -64 -79q32 -6 51 -28t18 -57v-16q0 -54 -35 -84t-103 -30zM49 0
l495 715h85l-494 -715h-86zM95 318v281l-68 -46v100l82 62h102v-397h-116z" />
    <glyph glyph-name="twothirds" unicode="&#x2154;" horiz-adv-x="791" 
d="M623 -6q-74 0 -107.5 31t-34.5 95h102q1 -44 33 -44q31 0 31 38v14q0 22 -10 31.5t-34 9.5h-20v68h20q44 0 44 40v7q0 37 -28 37q-30 0 -31 -43h-102q5 125 137 125q63 0 98 -26.5t35 -78.5v-10q0 -62 -64 -79q32 -6 51 -28t18 -57v-16q0 -54 -35 -84t-103 -30zM13 318
v15l103 134q35 45 49.5 72.5t14.5 53.5v8q0 33 -26 33q-28 0 -31 -51h-104q1 69 37.5 103.5t103.5 34.5q66 0 99.5 -30t33.5 -83v-7q0 -39 -17 -71.5t-53 -78.5l-37 -48h109v-85h-282zM116 0l495 715h85l-494 -715h-86z" />
    <glyph glyph-name="oneeighth" unicode="&#x215b;" horiz-adv-x="749" 
d="M575 -6q-70 0 -107.5 28.5t-37.5 81.5v20q0 67 65 86q-53 21 -53 76v12q0 50 37 77.5t97 27.5q62 0 98.5 -27t36.5 -77v-12q0 -57 -54 -76q64 -19 64 -87v-18q0 -54 -37.5 -83t-108.5 -29zM576 73q33 0 33 37v28q0 39 -33 39t-33 -39v-28q0 -37 33 -37zM576 240
q31 0 31 35v17q0 34 -31 34q-30 0 -30 -35v-16q0 -35 30 -35zM95 318v281l-68 -46v100l82 62h102v-397h-116zM50 0l495 715h85l-494 -715h-86z" />
    <glyph glyph-name="threeeighths" unicode="&#x215c;" horiz-adv-x="774" 
d="M601 -6q-70 0 -107.5 28.5t-37.5 81.5v20q0 67 65 86q-53 21 -53 76v12q0 50 37 77.5t97 27.5q62 0 98.5 -27t36.5 -77v-12q0 -57 -54 -76q64 -19 64 -87v-18q0 -54 -37.5 -83t-108.5 -29zM166 312q-74 0 -107.5 31t-34.5 95h102q1 -44 33 -44q31 0 31 38v14
q0 22 -10 31.5t-34 9.5h-20v68h20q44 0 44 40v7q0 37 -28 37q-30 0 -31 -43h-102q5 125 137 125q63 0 98 -26.5t35 -78.5v-10q0 -62 -64 -79q32 -6 51 -28t18 -57v-16q0 -54 -35 -84t-103 -30zM94 0l495 715h85l-494 -715h-86zM602 73q33 0 33 37v28q0 39 -33 39t-33 -39
v-28q0 -37 33 -37zM602 240q31 0 31 35v17q0 34 -31 34q-30 0 -30 -35v-16q0 -35 30 -35z" />
    <glyph glyph-name="fiveeighths" unicode="&#x215d;" horiz-adv-x="772" 
d="M599 -6q-70 0 -107.5 28.5t-37.5 81.5v20q0 67 65 86q-53 21 -53 76v12q0 50 37 77.5t97 27.5q62 0 98.5 -27t36.5 -77v-12q0 -57 -54 -76q64 -19 64 -87v-18q0 -54 -37.5 -83t-108.5 -29zM162 312q-135 0 -137 124h102q3 -40 31 -40q29 0 29 39v29q0 45 -42 45
q-28 0 -44 -22h-66l8 228h240v-84h-158l-2 -85q28 34 77 34q47 0 74 -29.5t27 -86.5v-30q0 -59 -35.5 -90.5t-103.5 -31.5zM86 0l495 715h85l-494 -715h-86zM600 73q33 0 33 37v28q0 39 -33 39t-33 -39v-28q0 -37 33 -37zM600 240q31 0 31 35v17q0 34 -31 34q-30 0 -30 -35
v-16q0 -35 30 -35z" />
    <glyph glyph-name="seveneighths" unicode="&#x215e;" horiz-adv-x="742" 
d="M569 -6q-70 0 -107.5 28.5t-37.5 81.5v20q0 67 65 86q-53 21 -53 76v12q0 50 37 77.5t97 27.5q62 0 98.5 -27t36.5 -77v-12q0 -57 -54 -76q64 -19 64 -87v-18q0 -54 -37.5 -83t-108.5 -29zM570 73q33 0 33 37v28q0 39 -33 39t-33 -39v-28q0 -37 33 -37zM570 240
q31 0 31 35v17q0 34 -31 34q-30 0 -30 -35v-16q0 -35 30 -35zM63 318l89 304h-128v93h266v-15l-113 -382h-114zM42 0l495 715h85l-494 -715h-86z" />
    <glyph glyph-name="minus" unicode="&#x2212;" horiz-adv-x="461" 
d="M427 284h-393v113h393v-113z" />
    <glyph glyph-name="commaaccent" unicode="&#xf6c3;" 
d="M205 -204l-89 21l31 149l138 -6z" />
    <glyph glyph-name="f_i" unicode="&#xfb01;" horiz-adv-x="516" 
d="M326 0v523h148v-523h-148zM400 567q-37 0 -60 22.5t-23 57.5q0 33 23.5 55.5t59.5 22.5q35 0 59 -22.5t24 -55.5q0 -34 -24 -57t-59 -23zM66 0v419h-50v104h50v70q0 76 42 115t114 39q42 0 60 -6v-110q-15 3 -26 3q-42 0 -42 -47v-64h68v-104h-68v-419h-148z" />
    <glyph glyph-name="f_l" unicode="&#xfb02;" horiz-adv-x="518" 
d="M66 0v419h-50v104h50v70q0 76 42 115t114 39q42 0 60 -6v-110q-15 3 -26 3q-42 0 -42 -47v-64h68v-104h-68v-419h-148zM327 0v743h148v-743h-148z" />
    <glyph glyph-name="idotaccent" horiz-adv-x="232" 
d="M42 0v523h148v-523h-148zM116 567q-37 0 -60 22.5t-23 57.5q0 33 23.5 55.5t59.5 22.5q35 0 59 -22.5t24 -55.5q0 -34 -24 -57t-59 -23z" />
    <glyph glyph-name="zero.num" horiz-adv-x="364" 
d="M182 400q22 0 31 15.5t9 50.5v100q0 37 -9.5 52t-31.5 15q-21 0 -30 -15t-9 -52v-100q0 -36 9 -51t31 -15zM182 310q-75 0 -115.5 39.5t-40.5 115.5v103q0 75 42.5 114t112.5 39q71 0 114 -37.5t43 -113.5v-102q0 -77 -41 -117.5t-115 -40.5z" />
    <glyph glyph-name="one.num" horiz-adv-x="255" 
d="M92 318v281l-68 -46v100l82 62h102v-397h-116z" />
    <glyph glyph-name="two.num" horiz-adv-x="316" 
d="M10 318v15l103 134q35 45 49.5 72.5t14.5 53.5v8q0 33 -26 33q-28 0 -31 -51h-104q1 69 37.5 103.5t103.5 34.5q66 0 99.5 -30t33.5 -83v-7q0 -39 -17 -71.5t-53 -78.5l-37 -48h109v-85h-282z" />
    <glyph glyph-name="three.num" horiz-adv-x="328" 
d="M163 312q-74 0 -107.5 31t-34.5 95h102q1 -44 33 -44q31 0 31 38v14q0 22 -10 31.5t-34 9.5h-20v68h20q44 0 44 40v7q0 37 -28 37q-30 0 -31 -43h-102q5 125 137 125q63 0 98 -26.5t35 -78.5v-10q0 -62 -64 -79q32 -6 51 -28t18 -57v-16q0 -54 -35 -84t-103 -30z" />
    <glyph glyph-name="four.num" horiz-adv-x="349" 
d="M174 318v81h-160v39l132 277h139v-238h42v-78h-42v-81h-111zM111 477h66v153z" />
    <glyph glyph-name="five.num" horiz-adv-x="323" 
d="M159 312q-135 0 -137 124h102q3 -40 31 -40q29 0 29 39v29q0 45 -42 45q-28 0 -44 -22h-66l8 228h240v-84h-158l-2 -85q28 34 77 34q47 0 74 -29.5t27 -86.5v-30q0 -59 -35.5 -90.5t-103.5 -31.5z" />
    <glyph glyph-name="six.num" horiz-adv-x="343" 
d="M178 312q-152 0 -152 157v98q0 74 40.5 114t112.5 40q129 0 135 -119h-104q-3 35 -31 35q-38 0 -38 -70v-41q23 41 77 41q45 0 73.5 -24.5t28.5 -78.5v-32q0 -58 -37 -89t-105 -31zM177 388q33 0 33 40v34q0 38 -33 38t-33 -38v-35q0 -39 33 -39z" />
    <glyph glyph-name="seven.num" horiz-adv-x="301" 
d="M60 318l89 304h-128v93h266v-15l-113 -382h-114z" />
    <glyph glyph-name="eight.num" horiz-adv-x="338" 
d="M168 312q-145 0 -145 110v20q0 67 65 86q-53 21 -53 76v12q0 50 37 77.5t97 27.5q62 0 98.5 -27t36.5 -77v-12q0 -57 -54 -76q64 -19 64 -87v-18q0 -54 -37.5 -83t-108.5 -29zM169 391q33 0 33 37v28q0 18 -9 28.5t-24 10.5q-33 0 -33 -39v-28q0 -37 33 -37zM169 558
q31 0 31 35v17q0 34 -31 34q-30 0 -30 -35v-16q0 -35 30 -35z" />
    <glyph glyph-name="nine.num" horiz-adv-x="343" 
d="M167 311q-135 0 -139 119h104q3 -36 34 -36q20 0 28 15t8 49v43q-24 -38 -73 -38q-47 0 -76.5 25.5t-29.5 80.5v29q0 57 37.5 89.5t103.5 32.5q76 0 114.5 -41t38.5 -115v-102q0 -151 -150 -151zM166 531q34 0 34 38v32q0 40 -34 40q-33 0 -33 -41v-30q0 -39 33 -39z" />
    <glyph glyph-name="zero.den" horiz-adv-x="364" 
d="M182 82q22 0 31 15.5t9 50.5v100q0 37 -9.5 52t-31.5 15q-21 0 -30 -15t-9 -52v-100q0 -36 9 -51t31 -15zM182 -8q-75 0 -115.5 39.5t-40.5 115.5v103q0 75 42.5 114t112.5 39q71 0 114 -37.5t43 -113.5v-102q0 -77 -41 -117.5t-115 -40.5z" />
    <glyph glyph-name="one.den" horiz-adv-x="255" 
d="M92 0v281l-68 -46v100l82 62h102v-397h-116z" />
    <glyph glyph-name="two.den" horiz-adv-x="316" 
d="M10 0v15l103 134q34 45 49 73t15 53v8q0 33 -26 33q-28 0 -31 -51h-104q1 69 37.5 103.5t103.5 34.5q66 0 99.5 -30t33.5 -83v-7q0 -39 -17 -71.5t-53 -78.5l-37 -48h109v-85h-282z" />
    <glyph glyph-name="three.den" horiz-adv-x="328" 
d="M163 -6q-74 0 -107.5 31t-34.5 95h102q1 -44 33 -44q31 0 31 38v14q0 22 -10 31.5t-34 9.5h-20v68h20q44 0 44 40v7q0 37 -28 37q-30 0 -31 -43h-102q5 125 137 125q63 0 98 -26.5t35 -78.5v-10q0 -62 -64 -79q32 -6 51 -28t18 -57v-16q0 -54 -35 -84t-103 -30z" />
    <glyph glyph-name="four.den" horiz-adv-x="349" 
d="M174 0v81h-160v39l132 277h139v-238h42v-78h-42v-81h-111zM111 159h66v153z" />
    <glyph glyph-name="five.den" horiz-adv-x="323" 
d="M159 -6q-135 0 -137 124h102q3 -40 31 -40q29 0 29 39v30q0 44 -42 44q-29 0 -44 -22h-66l8 228h240v-84h-158l-2 -85q28 34 77 34q47 0 74 -29.5t27 -86.5v-30q0 -59 -35.5 -90.5t-103.5 -31.5z" />
    <glyph glyph-name="six.den" horiz-adv-x="343" 
d="M178 -6q-152 0 -152 157v99q0 73 40.5 113t112.5 40q129 0 135 -119h-104q-3 35 -31 35q-38 0 -38 -70v-41q23 41 77 41q45 0 73.5 -24.5t28.5 -78.5v-32q0 -57 -37.5 -88.5t-104.5 -31.5zM177 70q33 0 33 40v34q0 38 -33 38t-33 -38v-35q0 -39 33 -39z" />
    <glyph glyph-name="seven.den" horiz-adv-x="301" 
d="M60 0l89 304h-128v93h266v-15l-113 -382h-114z" />
    <glyph glyph-name="eight.den" horiz-adv-x="338" 
d="M168 -6q-70 0 -107.5 28.5t-37.5 81.5v20q0 67 65 86q-53 21 -53 76v12q0 50 37 77.5t97 27.5q62 0 98.5 -27t36.5 -77v-12q0 -57 -54 -76q64 -19 64 -87v-18q0 -54 -37.5 -83t-108.5 -29zM169 73q33 0 33 37v28q0 39 -33 39t-33 -39v-28q0 -37 33 -37zM169 240
q31 0 31 35v17q0 34 -31 34q-30 0 -30 -35v-16q0 -35 30 -35z" />
    <glyph glyph-name="nine.den" horiz-adv-x="343" 
d="M167 -7q-135 0 -139 120h104q1 -20 9 -28.5t25 -8.5q20 0 28 15t8 49v43q-25 -38 -73 -38q-47 0 -76.5 25.5t-29.5 80.5v29q0 57 37.5 89.5t103.5 32.5q76 0 114.5 -41t38.5 -115v-102q0 -151 -150 -151zM166 213q34 0 34 38v32q0 40 -34 40q-33 0 -33 -41v-30
q0 -39 33 -39z" />
    <glyph glyph-name="zero.sub" horiz-adv-x="364" 
d="M182 -36q22 0 31 15.5t9 50.5v100q0 37 -9.5 52t-31.5 15q-21 0 -30 -15t-9 -52v-100q0 -36 9 -51t31 -15zM182 -126q-75 0 -115.5 39.5t-40.5 115.5v103q0 75 42.5 114t112.5 39q71 0 114 -37.5t43 -113.5v-102q0 -77 -41 -117.5t-115 -40.5z" />
    <glyph glyph-name="one.sub" horiz-adv-x="255" 
d="M92 -118v281l-68 -46v100l82 62h102v-397h-116z" />
    <glyph glyph-name="two.sub" horiz-adv-x="316" 
d="M10 -118v15l103 134q34 45 49 73t15 53v8q0 33 -26 33q-28 0 -31 -51h-104q1 69 37.5 103.5t103.5 34.5q66 0 99.5 -29.5t33.5 -83.5v-7q0 -39 -17 -71.5t-53 -78.5l-37 -48h109v-85h-282z" />
    <glyph glyph-name="three.sub" horiz-adv-x="328" 
d="M163 -124q-74 0 -107.5 31t-34.5 95h102q1 -44 33 -44q31 0 31 38v14q0 22 -10 31.5t-34 9.5h-20v68h20q44 0 44 40v7q0 37 -28 37q-30 0 -31 -43h-102q5 125 137 125q63 0 98 -26.5t35 -78.5v-10q0 -62 -64 -79q32 -6 51 -28t18 -57v-15q0 -54 -35 -84.5t-103 -30.5z
" />
    <glyph glyph-name="four.sub" horiz-adv-x="349" 
d="M174 -118v81h-160v39l132 277h139v-238h42v-78h-42v-81h-111zM111 41h66v153z" />
    <glyph glyph-name="five.sub" horiz-adv-x="323" 
d="M159 -124q-135 0 -137 124h102q3 -40 31 -40q29 0 29 39v30q0 44 -42 44q-29 0 -44 -22h-66l8 228h240v-84h-158l-2 -85q28 34 77 34q47 0 74 -29.5t27 -86.5v-30q0 -59 -35.5 -90.5t-103.5 -31.5z" />
    <glyph glyph-name="six.sub" horiz-adv-x="343" 
d="M178 -124q-152 0 -152 157v99q0 73 40.5 113t112.5 40q129 0 135 -119h-104q-3 35 -31 35q-38 0 -38 -70v-41q23 41 77 41q45 0 73.5 -24.5t28.5 -78.5v-32q0 -57 -37.5 -88.5t-104.5 -31.5zM177 -47q33 0 33 39v34q0 38 -33 38t-33 -38v-35q0 -38 33 -38z" />
    <glyph glyph-name="seven.sub" horiz-adv-x="301" 
d="M60 -118l89 304h-128v93h266v-15l-113 -382h-114z" />
    <glyph glyph-name="eight.sub" horiz-adv-x="338" 
d="M168 -124q-70 0 -107.5 28.5t-37.5 81.5v20q0 67 65 86q-53 21 -53 76v12q0 50 37 77.5t97 27.5q62 0 98.5 -27t36.5 -77v-12q0 -57 -54 -76q64 -19 64 -87v-18q0 -54 -37.5 -83t-108.5 -29zM169 -45q15 0 24 10t9 27v28q0 39 -33 39t-33 -39v-28q0 -37 33 -37zM169 122
q31 0 31 35v17q0 34 -31 34q-30 0 -30 -35v-16q0 -35 30 -35z" />
    <glyph glyph-name="nine.sub" horiz-adv-x="343" 
d="M167 -125q-135 0 -139 120h104q1 -20 9 -28.5t25 -8.5q20 0 28 15t8 49v43q-25 -38 -73 -38q-47 0 -76.5 25.5t-29.5 80.5v29q0 57 37.5 89.5t103.5 32.5q76 0 114.5 -41t38.5 -115v-102q0 -151 -150 -151zM166 95q15 0 24.5 10t9.5 28v32q0 40 -34 40q-33 0 -33 -41v-30
q0 -39 33 -39z" />
    <glyph glyph-name="plus.sub" horiz-adv-x="324" 
d="M119 -60v91h-87v86h87v93h87v-93h87v-86h-87v-91h-87z" />
    <glyph glyph-name="minus.sub" horiz-adv-x="324" 
d="M32 31v86h261v-86h-261z" />
    <glyph glyph-name="zero.sup" horiz-adv-x="364" 
d="M182 454q22 0 31 15.5t9 51.5v100q0 36 -10 51.5t-31 15.5t-30 -15.5t-9 -52.5v-100q0 -36 9 -51t31 -15zM182 365q-76 0 -116 39t-40 115v103q0 75 42.5 114.5t112.5 39.5q71 0 114 -38t43 -114v-102q0 -76 -41 -116.5t-115 -40.5z" />
    <glyph glyph-name="one.sup" horiz-adv-x="255" 
d="M92 372v282l-68 -46v100l82 61h102v-397h-116z" />
    <glyph glyph-name="two.sup" horiz-adv-x="316" 
d="M10 372v15l103 135q35 45 49.5 72.5t14.5 53.5v8q0 32 -26 32q-28 0 -31 -51h-104q1 138 141 138q66 0 99.5 -29.5t33.5 -83.5v-7q0 -39 -17 -71t-53 -78l-37 -49h109v-85h-282z" />
    <glyph glyph-name="three.sup" horiz-adv-x="328" 
d="M163 366q-74 0 -107.5 31t-34.5 95h102q1 -44 33 -44q31 0 31 38v15q0 21 -10 30.5t-34 9.5h-20v69h20q44 0 44 40v7q0 36 -28 36q-30 0 -31 -43h-102q5 125 137 125q63 0 98 -26.5t35 -77.5v-10q0 -63 -64 -80q32 -6 51 -28t18 -57v-15q0 -54 -35 -84.5t-103 -30.5z" />
    <glyph glyph-name="four.sup" horiz-adv-x="349" 
d="M174 372v81h-160v39l132 277h139v-238h42v-78h-42v-81h-111zM111 531h66v154z" />
    <glyph glyph-name="five.sup" horiz-adv-x="323" 
d="M159 366q-135 0 -137 125h102q3 -40 31 -40q29 0 29 38v30q0 44 -42 44q-29 0 -44 -22h-66l8 228h240v-84h-158l-2 -85q28 34 77 34q47 0 74 -29.5t27 -86.5v-29q0 -60 -35.5 -91.5t-103.5 -31.5z" />
    <glyph glyph-name="six.sup" horiz-adv-x="343" 
d="M178 366q-152 0 -152 157v99q0 74 40.5 113.5t112.5 39.5q129 0 135 -119h-104q-3 35 -31 35q-38 0 -38 -70v-41q23 42 77 42q45 0 73.5 -25t28.5 -79v-32q0 -57 -37.5 -88.5t-104.5 -31.5zM177 443q33 0 33 39v34q0 39 -33 39t-33 -38v-36q0 -38 33 -38z" />
    <glyph glyph-name="seven.sup" horiz-adv-x="301" 
d="M60 372l89 304h-128v93h266v-14l-113 -383h-114z" />
    <glyph glyph-name="eight.sup" horiz-adv-x="338" 
d="M168 366q-70 0 -107.5 28.5t-37.5 81.5v20q0 67 65 86q-53 22 -53 76v13q0 50 37 77t97 27q62 0 98.5 -27t36.5 -77v-11q0 -58 -54 -77q64 -19 64 -86v-19q0 -54 -37.5 -83t-108.5 -29zM169 445q33 0 33 38v27q0 39 -33 39t-33 -39v-28q0 -37 33 -37zM169 612q31 0 31 35
v17q0 35 -31 35q-30 0 -30 -35v-17q0 -35 30 -35z" />
    <glyph glyph-name="nine.sup" horiz-adv-x="343" 
d="M167 365q-135 0 -139 120h104q1 -20 9 -28.5t25 -8.5q20 0 28 15t8 49v43q-25 -38 -73 -38q-46 0 -76 25.5t-30 80.5v29q0 58 38 90.5t103 32.5q76 0 114.5 -41.5t38.5 -115.5v-102q0 -151 -150 -151zM166 585q15 0 24.5 10.5t9.5 28.5v31q0 40 -34 40q-33 0 -33 -41v-30
q0 -39 33 -39z" />
    <glyph glyph-name="plus.sup" horiz-adv-x="324" 
d="M119 444v92h-87v87h87v92h87v-92h87v-87h-87v-92h-87z" />
    <glyph glyph-name="minus.sup" horiz-adv-x="324" 
d="M32 536v87h261v-87h-261z" />
    <glyph glyph-name="G.alt" horiz-adv-x="570" 
d="M300 272v113h236v-160q0 -237 -241 -237q-121 0 -188.5 64.5t-67.5 183.5v241q0 120 69 184t184 64q231 0 236 -225h-161q-3 52 -21 73t-55 21q-42 0 -62 -27.5t-20 -86.5v-246q0 -59 20.5 -87t67.5 -28q41 0 59.5 24.5t18.5 77.5v51h-75z" />
    <glyph glyph-name="J.alt" horiz-adv-x="358" 
d="M117 -7q-56 0 -94 18v126q22 -8 57 -8q34 0 51.5 17t17.5 58v511h165v-517q0 -101 -50.5 -153t-146.5 -52z" />
    <glyph glyph-name="M.alt" horiz-adv-x="685" 
d="M50 0v715h204l87 -373l87 373h207v-715h-162v456l-117 -456h-49l-116 456v-456h-141z" />
    <glyph glyph-name="Q.alt" horiz-adv-x="586" 
d="M430 -111l-95 101q-26 -2 -41 -2q-119 0 -186.5 64t-67.5 184v241q0 119 70 183.5t183 64.5q117 0 185 -62.5t68 -183.5v-239q0 -129 -76 -194l61 -65zM210 229q0 -73 29 -99l85 73l42 -45q11 28 11 71v249q0 116 -84 116q-83 0 -83 -116v-249z" />
    <glyph glyph-name="Q.alt1" horiz-adv-x="587" 
d="M490 -102l-321 60l12 51q-141 51 -141 227v241q0 119 70 183.5t183 64.5q117 0 185.5 -62.5t68.5 -183.5v-239q0 -164 -132 -207l103 -19zM293 120q84 0 84 116v242q0 115 -84 115q-83 0 -83 -115v-242q0 -60 20 -88t63 -28z" />
    <glyph glyph-name="R.alt" horiz-adv-x="535" 
d="M50 0v715h213q119 0 175 -48t56 -146v-46q0 -65 -22.5 -101.5t-66.5 -55.5l112 -318h-172l-94 289h-37v-289h-164zM214 396h42q40 0 58.5 18t18.5 60v42q0 39 -18.5 56.5t-57.5 17.5h-43v-194z" />
    <glyph glyph-name="a.alt" horiz-adv-x="483" 
d="M443 523v-523h-149v65q-35 -75 -117 -75q-66 0 -106 48t-40 143v160q0 95 42 143.5t109 48.5q83 0 112 -69v59h149zM296 186v153q0 86 -59 86q-56 0 -56 -81v-165q0 -77 54 -77q61 0 61 84z" />
    <glyph glyph-name="t.alt" horiz-adv-x="310" 
d="M71 626h149v-103h72v-104h-72v-419h-149v419h-55v104h55v103z" />
    <glyph glyph-name="Gbreve.alt" horiz-adv-x="568" 
d="M300 272v113h236v-160q0 -237 -241 -237q-121 0 -188.5 64.5t-67.5 183.5v241q0 120 69 184t184 64q231 0 236 -225h-161q-3 52 -21 73t-55 21q-42 0 -62 -27.5t-20 -86.5v-246q0 -59 20.5 -87t67.5 -28q41 0 59.5 24.5t18.5 77.5v51h-75zM287 748q-62 0 -99 35t-40 101
h97q3 -39 42 -39q41 0 44 39h98q-4 -65 -42.5 -100.5t-99.5 -35.5z" />
    <glyph glyph-name="Gcircumflex.alt" horiz-adv-x="568" 
d="M300 272v113h236v-160q0 -237 -241 -237q-121 0 -188.5 64.5t-67.5 183.5v241q0 120 69 184t184 64q231 0 236 -225h-161q-3 52 -21 73t-55 21q-42 0 -62 -27.5t-20 -86.5v-246q0 -59 20.5 -87t67.5 -28q41 0 59.5 24.5t18.5 77.5v51h-75zM133 753l92 137h129l88 -137
h-104l-51 47l-52 -47h-102z" />
    <glyph glyph-name="Gcommaaccent.alt" horiz-adv-x="568" 
d="M300 272v113h236v-160q0 -237 -241 -237q-121 0 -188.5 64.5t-67.5 183.5v241q0 120 69 184t184 64q231 0 236 -225h-161q-3 52 -21 73t-55 21q-42 0 -62 -27.5t-20 -86.5v-246q0 -59 20.5 -87t67.5 -28q41 0 59.5 24.5t18.5 77.5v51h-75zM279 -204l-89 21l31 149l138 -6
z" />
    <glyph glyph-name="Gdotaccent.alt" horiz-adv-x="568" 
d="M300 272v113h236v-160q0 -237 -241 -237q-121 0 -188.5 64.5t-67.5 183.5v241q0 120 69 184t184 64q231 0 236 -225h-161q-3 52 -21 73t-55 21q-42 0 -62 -27.5t-20 -86.5v-246q0 -59 20.5 -87t67.5 -28q41 0 59.5 24.5t18.5 77.5v51h-75zM288 752q-35 0 -58.5 22
t-23.5 56q0 33 23.5 55t58.5 22q34 0 58 -22t24 -55t-24 -55.5t-58 -22.5z" />
    <glyph glyph-name="Jcircumflex.alt" horiz-adv-x="363" 
d="M79 753l92 137h129l88 -137h-104l-51 47l-52 -47h-102zM117 -7q-56 0 -94 18v126q22 -8 57 -8q34 0 51.5 17t17.5 58v511h165v-517q0 -101 -50.5 -153t-146.5 -52z" />
    <glyph glyph-name="Racute.alt" horiz-adv-x="532" 
d="M196 753l40 137h159l-83 -137h-116zM50 0v715h213q119 0 175 -48t56 -146v-46q0 -65 -22.5 -101.5t-66.5 -55.5l112 -318h-172l-94 289h-37v-289h-164zM214 396h42q40 0 58.5 18t18.5 60v42q0 39 -18.5 56.5t-57.5 17.5h-43v-194z" />
    <glyph glyph-name="Rcaron.alt" horiz-adv-x="532" 
d="M193 753l-87 137h104l51 -47l52 47h101l-91 -137h-130zM50 0v715h213q119 0 175 -48t56 -146v-46q0 -65 -22.5 -101.5t-66.5 -55.5l112 -318h-172l-94 289h-37v-289h-164zM214 396h42q40 0 58.5 18t18.5 60v42q0 39 -18.5 56.5t-57.5 17.5h-43v-194z" />
    <glyph glyph-name="Rcommaaccent.alt" horiz-adv-x="532" 
d="M266 -204l-89 21l31 149l138 -6zM50 0v715h213q119 0 175 -48t56 -146v-46q0 -65 -22.5 -101.5t-66.5 -55.5l112 -318h-172l-94 289h-37v-289h-164zM214 396h42q40 0 58.5 18t18.5 60v42q0 39 -18.5 56.5t-57.5 17.5h-43v-194z" />
    <glyph glyph-name="aacute.alt" horiz-adv-x="481" 
d="M185 575l42 157h157l-88 -157h-111zM443 523v-523h-149v65q-35 -75 -117 -75q-66 0 -106 48t-40 143v160q0 95 42 143.5t109 48.5q83 0 112 -69v59h149zM296 186v153q0 86 -59 86q-56 0 -56 -81v-165q0 -77 54 -77q61 0 61 84z" />
    <glyph glyph-name="abreve.alt" horiz-adv-x="481" 
d="M443 523v-523h-149v65q-35 -75 -117 -75q-66 0 -106 48t-40 143v160q0 95 42 143.5t109 48.5q83 0 112 -69v59h149zM296 186v153q0 86 -59 86q-56 0 -56 -81v-165q0 -77 54 -77q61 0 61 84zM243 574q-60 0 -96.5 38t-39.5 110h95q2 -45 41 -45t44 45h93
q-3 -72 -40.5 -110t-96.5 -38z" />
    <glyph glyph-name="acircumflex.alt" horiz-adv-x="481" 
d="M91 575l95 156h118l91 -156h-102l-50 56l-51 -56h-101zM443 523v-523h-149v65q-35 -75 -117 -75q-66 0 -106 48t-40 143v160q0 95 42 143.5t109 48.5q83 0 112 -69v59h149zM296 186v153q0 86 -59 86q-56 0 -56 -81v-165q0 -77 54 -77q61 0 61 84z" />
    <glyph glyph-name="adieresis.alt" horiz-adv-x="481" 
d="M152 570q-33 0 -55.5 21.5t-22.5 53.5t22.5 54.5t55.5 22.5t55.5 -22.5t22.5 -54.5t-22.5 -53.5t-55.5 -21.5zM337 570q-34 0 -56 21.5t-22 53.5q0 33 22.5 55t55.5 22q32 0 55 -22.5t23 -54.5q0 -31 -23 -53t-55 -22zM443 523v-523h-149v65q-35 -75 -117 -75
q-66 0 -106 48t-40 143v160q0 95 42 143.5t109 48.5q83 0 112 -69v59h149zM296 186v153q0 86 -59 86q-56 0 -56 -81v-165q0 -77 54 -77q61 0 61 84z" />
    <glyph glyph-name="agrave.alt" horiz-adv-x="481" 
d="M443 523v-523h-149v65q-35 -75 -117 -75q-66 0 -106 48t-40 143v160q0 95 42 143.5t109 48.5q83 0 112 -69v59h149zM296 186v153q0 86 -59 86q-56 0 -56 -81v-165q0 -77 54 -77q61 0 61 84zM195 575l-89 157h157l42 -157h-110z" />
    <glyph glyph-name="amacron.alt" horiz-adv-x="481" 
d="M443 523v-523h-149v65q-35 -75 -117 -75q-66 0 -106 48t-40 143v160q0 95 42 143.5t109 48.5q83 0 112 -69v59h149zM296 186v153q0 86 -59 86q-56 0 -56 -81v-165q0 -77 54 -77q61 0 61 84zM115 594v94h257v-94h-257z" />
    <glyph glyph-name="aogonek.alt" horiz-adv-x="492" 
d="M381 -181q-44 0 -73 20.5t-29 56.5q0 61 73 104h-58v65q-35 -75 -117 -75q-66 0 -106 48t-40 143v160q0 95 42 143.5t109 48.5q83 0 112 -69v59h149v-523h-4q-35 -33 -35 -65q0 -27 27 -27q9 0 23 4v-78q-28 -15 -73 -15zM296 186v153q0 86 -59 86q-56 0 -56 -81v-165
q0 -77 54 -77q61 0 61 84z" />
    <glyph glyph-name="aring.alt" horiz-adv-x="481" 
d="M243 631q16 0 27 12t11 30t-11 30t-27 12t-27 -12t-11 -30t11 -30t27 -12zM243 573q-43 0 -73.5 29.5t-30.5 70.5t30.5 71t73.5 30t73.5 -30t30.5 -71t-30.5 -70.5t-73.5 -29.5zM443 523v-523h-149v65q-35 -75 -117 -75q-66 0 -106 48t-40 143v160q0 95 42 143.5
t109 48.5q83 0 112 -69v59h149zM296 186v153q0 86 -59 86q-56 0 -56 -81v-165q0 -77 54 -77q61 0 61 84z" />
    <glyph glyph-name="aringacute.alt" horiz-adv-x="481" 
d="M243 628q16 0 27 12t11 30t-11 30t-27 12t-27 -12t-11 -30t11 -30t27 -12zM243 570q-43 0 -73.5 29.5t-30.5 70.5t30.5 71t73.5 30t73.5 -30t30.5 -71t-30.5 -70.5t-73.5 -29.5zM443 523v-523h-149v65q-35 -75 -117 -75q-66 0 -106 48t-40 143v160q0 95 42 143.5
t109 48.5q83 0 112 -69v59h149zM296 186v153q0 86 -59 86q-56 0 -56 -81v-165q0 -77 54 -77q61 0 61 84zM184 782l40 137h159l-83 -137h-116z" />
    <glyph glyph-name="atilde.alt" horiz-adv-x="481" 
d="M443 523v-523h-149v65q-35 -75 -117 -75q-66 0 -106 48t-40 143v160q0 95 42 143.5t109 48.5q83 0 112 -69v59h149zM296 186v153q0 86 -59 86q-56 0 -56 -81v-165q0 -77 54 -77q61 0 61 84zM297 581q-26 0 -56 14t-39 14q-10 0 -17.5 -8t-8.5 -21h-81q4 71 28.5 106
t65.5 35q25 0 56.5 -14.5t41.5 -14.5q21 0 26 30h81q-4 -71 -30.5 -106t-66.5 -35z" />
    <glyph glyph-name="tcaron.alt" horiz-adv-x="312" 
d="M71 626h149v-103h72v-104h-72v-419h-149v419h-55v104h55v103zM248 584l6 160h114l-41 -160h-79z" />
    <glyph glyph-name="tcommaaccent.alt" horiz-adv-x="312" 
d="M139 -204l-89 21l31 149l138 -6zM71 626h149v-103h72v-104h-72v-419h-149v419h-55v104h55v103z" />
    <glyph glyph-name="percent.alt" horiz-adv-x="672" 
d="M188 410q-74 0 -117.5 44t-43.5 114q0 67 46.5 110.5t115.5 43.5q70 0 116 -42.5t46 -110.5q0 -70 -44.5 -114.5t-118.5 -44.5zM189 499q50 0 50 66q0 65 -50 65q-23 0 -36 -17t-13 -48q0 -32 13 -49t36 -17zM75 0l438 715h86l-439 -715h-85zM482 79q50 0 50 66
q0 65 -50 65q-23 0 -36 -17t-13 -48q0 -32 13 -49t36 -17zM482 -10q-74 0 -118 43.5t-44 113.5q0 68 46.5 111.5t115.5 43.5q70 0 116 -42.5t46 -110.5q0 -70 -44.5 -114.5t-117.5 -44.5z" />
    <glyph glyph-name="caron.alt" 
d="M157 584l6 160h114l-41 -160h-79z" />
    <glyph glyph-name="commaaccent.alt" 
d="M266 574l-138 6l80 164l88 -22z" />
    <glyph glyph-name="hyphen.uc" horiz-adv-x="321" 
d="M42 276v118h237v-118h-237z" />
    <glyph glyph-name="grave.uc" 
d="M157 753l-82 137h160l38 -137h-116z" />
    <glyph glyph-name="dieresis.uc" 
d="M111 753q-31 0 -52.5 21t-21.5 52t21.5 52t52.5 21q32 0 54 -21t22 -52t-22 -52t-54 -21zM298 753q-31 0 -52.5 21t-21.5 52t21.5 52t52.5 21q32 0 54 -21t22 -52t-22 -52t-54 -21z" />
    <glyph glyph-name="macron.uc" 
d="M69 763v98h271v-98h-271z" />
    <glyph glyph-name="acute.uc" 
d="M137 753l40 137h159l-83 -137h-116z" />
    <glyph glyph-name="circumflex.uc" 
d="M50 753l92 137h129l88 -137h-104l-51 47l-52 -47h-102z" />
    <glyph glyph-name="caron.uc" 
d="M137 753l-87 137h104l51 -47l52 47h101l-91 -137h-130z" />
    <glyph glyph-name="breve.uc" 
d="M204 748q-62 0 -99 35t-40 101h97q3 -39 42 -39q41 0 44 39h98q-4 -65 -42.5 -100.5t-99.5 -35.5z" />
    <glyph glyph-name="dotaccent.uc" 
d="M205 752q-35 0 -58.5 22t-23.5 56q0 33 23.5 55t58.5 22q34 0 58 -22t24 -55t-24 -55.5t-58 -22.5z" />
    <glyph glyph-name="ring.uc" 
d="M205 797q17 0 27.5 12t10.5 31q0 18 -11 30t-27 12q-17 0 -27.5 -12t-10.5 -30q0 -19 10.5 -31t27.5 -12zM205 739q-44 0 -74.5 29.5t-30.5 71.5t30.5 71.5t74.5 29.5t74.5 -29.5t30.5 -71.5t-30.5 -71.5t-74.5 -29.5z" />
    <glyph glyph-name="tilde.uc" 
d="M261 754q-27 0 -60 14.5t-42 14.5q-22 0 -26 -30h-84q4 70 31 104.5t68 34.5q26 0 60 -14t44 -14q21 0 26 29h84q-4 -70 -32 -104.5t-69 -34.5z" />
    <glyph glyph-name="hungarumlaut.uc" 
d="M66 753l27 137h133l-57 -137h-103zM229 753l27 137h134l-58 -137h-103z" />
    <glyph glyph-name="f.short" horiz-adv-x="295" 
d="M66 0v419h-50v104h50v70q0 76 42 115t114 39q42 0 60 -6v-110q-15 3 -26 3q-42 0 -42 -47v-64h68v-104h-68v-419h-148z" />
    <glyph glyph-name="f_f.short" horiz-adv-x="542" 
d="M66 0v419h-50v104h50v63q0 75 42 114.5t111 39.5q42 0 60 -6v-110q-7 3 -25 3q-40 0 -40 -46v-58h98v70q0 76 42 115t114 39q42 0 60 -6v-110q-15 3 -25 3q-43 0 -43 -47v-64h69v-104h-69v-419h-148v419h-98v-419h-148z" />
    <glyph glyph-name="M.trap" horiz-adv-x="685" 
d="M50 0v715h204l74 -309l13 -64l14 64l73 309h207v-715h-162v456l-21 -83l-96 -373h-49l-95 373l-21 83v-456h-141z" />
    <glyph glyph-name="N.trap" horiz-adv-x="571" 
d="M50 0v715h181l119 -323l27 -75v398h145v-715h-159l-143 384l-26 72v-456h-144z" />
    <glyph glyph-name="w.trap" horiz-adv-x="656" 
d="M120 0l-108 523h152l40 -253l8 -57l11 57l49 253h127l45 -253l10 -57l10 57l43 253h137l-115 -523h-146l-46 256l-9 51l-10 -51l-50 -256h-148z" />
    <glyph glyph-name="y.trap" horiz-adv-x="458" 
d="M102 -172l61 209l-152 486h159l57 -240l13 -55l12 55l54 240h141l-200 -695h-145z" />
    <glyph glyph-name="four.trap" horiz-adv-x="531" 
d="M278 0v155h-259v57l215 503h203v-442h71v-118h-71v-155h-159zM164 273h117v303l-27 -72z" />
    </font>
</defs>
</svg>
